<svg xmlns="http://www.w3.org/2000/svg" width="297.55" height="182.58" viewBox="0 0 297.55 182.58">
  <defs>
    <style>
      .cls-1 {
        fill: #fff;
        fill-rule: evenodd;
      }
    </style>
  </defs>
  <title>logo</title>
  <g id="Layer_2" data-name="Layer 2">
    <g id="Layer_1-2" data-name="Layer 1">
      <g>
        <path class="cls-1" d="M23.56,32.25c-8,6.62-2.08,15.82,10.77,19s24.84,1.38,33.19-3C92.3,52.55,111.58,61,120.71,74.05s5.89,29.54-8.62,45.41c-12.71-.27-24.94,3.43-32.26,13.53s-1.56,24.46,15.28,28.41,36.58-4.33,42.28-14.65,1.12-18.05-8.31-23.16c6.86-17.65,22.58-31,42.81-36.43s41.66-3.09,62.24,4.35c1,6.48,6.93,12.66,18.11,15.59s23.71-1,25.22-8.66-7.6-16.14-17.85-18.92-18.17-.94-22.69,3.52c-21.4-3.81-40.31-12.58-50-24s-8.58-22.52-.2-31.49c8.54.87,15.87-.79,18.29-5.36S201.61,11,191.5,8.22,170.11,7.28,167,11.7s.39,9.09,7.49,12.51c-3.55,10.31-14.41,18.74-34.07,22.5S96.28,48,75,40.61c1.52-5.51-2.57-10.74-14.22-13.76s-29.25-1.22-37.24,5.4"/>
        <path class="cls-1" d="M198.48,2.05c15.85,4.44,24.74,15.5,22.55,20s-3.51,4.05-6.86,5.27c.75-.76-.18,1.52,1.79-2.49S210.91,9,196.63,5.07s-32.23,1-35.1,4.79-1.05,1.73-1.31,2.66c-1.19-2.51-2.71-2.79.57-7.09s21.84-7.81,37.69-3.38M6.34,27.58C20.1,17,50,15.23,61.66,18.29S71.81,22,75,24.53c-1.88-.73,4.07.71-6.12-2S27.56,20.5,15.68,29.94,19.05,54.72,30.8,57.62s5.19,1.09,7.82,1.44c-7.3.51-7.52,1.77-21.3-1.6s-24.75-19.33-11-29.88m291.07,75.84c-1.83,12.48-23.78,19-35.52,16S251.08,115.31,247,112c2,.84-3.78-.51,6.33,2.13s34.29-1.77,36.18-12.84S272.86,77,263.94,74.58s-3.89-.93-5.81-1.21c4.55-.47,4.21-1.51,14.43,1.28s26.69,16.28,24.85,28.77M85.75,181.1c-28.45-6.5-36.16-32.61-27.47-43.64s9.9-9.31,16.82-12.4c-1.91,1.68,2-3.85-5.08,5.37S66.89,166.25,91.63,172s55.92-12.25,60.88-21.8,1.74-4,2.19-5.93c1.54,5,4.23,4.24-1.54,15.68s-38.95,27.68-67.41,21.19"/>
      </g>
    </g>
  </g>
</svg>
