<svg xmlns="http://www.w3.org/2000/svg" width="350" height="350" viewBox="0 0 350 350">
  <g id="Group_177" data-name="Group 177" transform="translate(-847 -555)">
    <g id="Group_18" data-name="Group 18" transform="translate(847 555)">
      <rect id="Video" width="350" height="350" fill="#a6b2c9"/>
    </g>
    <g id="Group_29" data-name="Group 29" transform="translate(425.463 -275.244)">
      <path id="Path_204" data-name="Path 204" d="M142.568,112.622a1.366,1.366,0,0,0-2.1-.231l-16.917,15.96v-9.687A6.664,6.664,0,0,0,116.884,112H63.664A6.664,6.664,0,0,0,57,118.664v40.611a6.664,6.664,0,0,0,6.664,6.664h53.22a6.664,6.664,0,0,0,6.664-6.664v-9.8l17.359,16.066a1.349,1.349,0,0,0,2.2-.432,5.649,5.649,0,0,0,.352-1.969V115.67A5.616,5.616,0,0,0,142.568,112.622Z" transform="translate(496.537 866.244)" fill="#f3f5f9"/>
    </g>
  </g>
</svg>
