<svg xmlns="http://www.w3.org/2000/svg" width="234.131" height="200.347" viewBox="0 0 234.131 200.347">
  <g id="Group_183" data-name="Group 183" transform="translate(-355 -600)">
    <path id="Subtraction_1" data-name="Subtraction 1" d="M234.131,73.76H0A86.7,86.7,0,0,1,15.7,44.442,108.826,108.826,0,0,1,42.088,21.064,131.329,131.329,0,0,1,76.7,5.594a148.449,148.449,0,0,1,80.738,0,131.356,131.356,0,0,1,34.609,15.47A108.818,108.818,0,0,1,218.43,44.442a86.664,86.664,0,0,1,15.7,29.315l0,0h0Z" transform="translate(355 726.587)" fill="#a6b2c9"/>
    <ellipse id="Ellipse_7" data-name="Ellipse 7" cx="51.5" cy="56" rx="51.5" ry="56" transform="translate(417 600)" fill="#a6b2c9"/>
  </g>
</svg>
