<svg xmlns="http://www.w3.org/2000/svg" width="397.869" height="341.03" viewBox="0 0 397.869 341.03">
  <g id="Group_145" data-name="Group 145" transform="translate(-355 -605.639)">
    <path id="Subtraction_1" data-name="Subtraction 1" d="M397.869,125.343H0a147.339,147.339,0,0,1,26.682-49.82A184.934,184.934,0,0,1,71.522,35.8,223.174,223.174,0,0,1,130.335,9.507a252.266,252.266,0,0,1,137.2,0A223.219,223.219,0,0,1,326.351,35.8a184.918,184.918,0,0,1,44.837,39.728,147.272,147.272,0,0,1,26.678,49.817l0,0h0Z" transform="translate(355 821.326)" fill="#a6b2c9"/>
    <ellipse id="Ellipse_7" data-name="Ellipse 7" cx="90" cy="98" rx="90" ry="98" transform="translate(457.869 605.639)" fill="#a6b2c9"/>
  </g>
</svg>
