<svg xmlns="http://www.w3.org/2000/svg" width="349" height="251" viewBox="0 0 349 251">
  <g id="Group_185" data-name="Group 185" transform="translate(-846 -1044)">
    <g id="Group_18" data-name="Group 18" transform="translate(846 1044)">
      <rect id="Video" width="349" height="251" fill="#a6b2c9"/>
    </g>
    <path id="Path_204" data-name="Path 204" d="M162.313,112.766a1.681,1.681,0,0,0-2.587-.285L138.9,132.124V120.2a8.2,8.2,0,0,0-8.2-8.2H65.2a8.2,8.2,0,0,0-8.2,8.2v49.983a8.2,8.2,0,0,0,8.2,8.2h65.5a8.2,8.2,0,0,0,8.2-8.2V158.126L160.27,177.9a1.66,1.66,0,0,0,2.711-.532,6.953,6.953,0,0,0,.434-2.424V116.517A6.912,6.912,0,0,0,162.313,112.766Z" transform="translate(909.999 1024.224)" fill="#f3f5f9"/>
  </g>
</svg>
