<svg xmlns="http://www.w3.org/2000/svg" width="942.99" height="445.49" viewBox="0 0 942.99 445.49">
  <defs>
    <style>
      .cls-1 {
        fill: #fac38c;
      }

      .cls-2 {
        fill: #f5b976;
      }

      .cls-3 {
        fill: #263238;
      }

      .cls-3, .cls-4, .cls-5, .cls-6 {
        fill-rule: evenodd;
      }

      .cls-4 {
        fill: #f7f7f7;
      }

      .cls-5 {
        fill: #3c464c;
      }

      .cls-14, .cls-6 {
        fill: #0099e6;
      }

      .cls-13, .cls-7 {
        fill: #101d23;
      }

      .cls-12, .cls-7 {
        opacity: 0.07;
      }

      .cls-8 {
        fill: #ffd729;
      }

      .cls-9 {
        fill: #fff;
      }

      .cls-10 {
        fill: #b9c6cc;
      }

      .cls-11 {
        fill: #546e7a;
      }

      .cls-15 {
        fill: #fcd9b7;
      }
    </style>
  </defs>
  <g id="Layer_2" data-name="Layer 2">
    <g id="Layer_1-2" data-name="Layer 1">
      <g>
        <g>
          <path class="cls-1" d="M776.92,258.26a25.54,25.54,0,0,1-6.21-13.69l-8.83-68.95a31.92,31.92,0,0,0-5.71-14.55L708.44,94.32a3.37,3.37,0,0,0-4.49-1c-6.05,3.74-8.81,10.9-9,19.38v2.45c.44,15.9,9,35.55,21.11,46.23a4.68,4.68,0,0,1,1.37,5c-2.82,8.23-10.08,31.77-8.43,51.85-4.7-.54-9.39-.83-14.05-.93v94.1A88.31,88.31,0,0,1,703.48,323l76.73,122.54H943Z"/>
          <path class="cls-2" d="M716.69,168.54l-21.78-22.07v70.9c4.66.1,9.35.39,14.05.93C707.43,199.7,713.54,178.16,716.69,168.54Z"/>
        </g>
        <g>
          <path class="cls-3" d="M682.06,0H208.9A12.86,12.86,0,0,0,196,12.85V320a12.86,12.86,0,0,0,12.86,12.86H682.06A12.86,12.86,0,0,0,694.91,320V12.85A12.86,12.86,0,0,0,682.06,0Z"/>
          <polygon class="cls-4" points="660.55 15.17 248.65 15.17 248.65 317.67 660.55 317.67 660.55 15.17 660.55 15.17"/>
          <path class="cls-5" d="M229.6,154.82a13.15,13.15,0,1,1-18.37,2.9,13.15,13.15,0,0,1,18.37-2.9Z"/>
          <path class="cls-6" d="M680.8,162a5.42,5.42,0,1,1-7.58,1.19A5.42,5.42,0,0,1,680.8,162Z"/>
          <g>
            <path class="cls-7" d="M380.23,113.39h-27.6V85.79a6.86,6.86,0,0,0-6.85-6.86h-27.1a6.86,6.86,0,0,0-6.86,6.86v27.6h-27.6a6.87,6.87,0,0,0-6.86,6.86v27.1a6.86,6.86,0,0,0,6.86,6.85h27.6v27.6a6.86,6.86,0,0,0,6.86,6.86h27.1a6.86,6.86,0,0,0,6.85-6.86V154.2h27.6a6.86,6.86,0,0,0,6.86-6.85v-27.1A6.87,6.87,0,0,0,380.23,113.39Z"/>
            <path class="cls-8" d="M380.23,116.82h-31v-31a3.43,3.43,0,0,0-3.42-3.43h-27.1a3.43,3.43,0,0,0-3.43,3.43v31h-31a3.43,3.43,0,0,0-3.43,3.43v27.1a3.44,3.44,0,0,0,3.43,3.43h31v31a3.42,3.42,0,0,0,3.43,3.43h27.1a3.42,3.42,0,0,0,3.42-3.43v-31h31a3.44,3.44,0,0,0,3.43-3.43v-27.1A3.43,3.43,0,0,0,380.23,116.82Z"/>
            <g>
              <polygon class="cls-9" points="322.97 107.04 341.48 107.04 332.23 87.16 322.97 107.04"/>
              <polygon class="cls-9" points="332.23 180.43 341.48 160.55 322.97 160.55 332.23 180.43"/>
              <polygon class="cls-9" points="305.47 143.05 305.47 124.54 285.59 133.8 305.47 143.05"/>
              <polygon class="cls-9" points="358.98 124.54 358.98 143.05 378.86 133.8 358.98 124.54"/>
            </g>
          </g>
          <rect class="cls-7" x="433.16" y="46.36" width="195.45" height="174.87"/>
          <rect class="cls-9" x="435.72" y="49" width="190.33" height="169.59"/>
          <g>
            <g>
              <path class="cls-10" d="M552.07,88.24a6.22,6.22,0,0,0,5.49,2.29l3-.31,10.63,10.44-.34,1.41a4.4,4.4,0,0,0,1.88,4.71l24,15.64a5.24,5.24,0,0,0,6.94-7.69L590.19,98a6.21,6.21,0,0,0-5.48-2.28l-3,.31L571.09,85.63l.34-1.41a4.4,4.4,0,0,0-1.88-4.71l-24-15.64a5.24,5.24,0,0,0-6.93,7.69Z"/>
              <path class="cls-10" d="M516.25,63.87l-24,15.64a4.4,4.4,0,0,0-1.88,4.71l.33,1.41L480.05,96.07l-3-.31A6.17,6.17,0,0,0,471.58,98l-13.49,16.69h0a5.24,5.24,0,0,0,6.94,7.69l24-15.64a4.41,4.41,0,0,0,1.89-4.71l-.34-1.41,10.63-10.44,3,.31a6.15,6.15,0,0,0,5.48-2.29l13.49-16.68a5.24,5.24,0,0,0-6.93-7.69Z"/>
              <path class="cls-10" d="M596.74,145.17l-24,15.64a4.41,4.41,0,0,0-1.88,4.72l.34,1.41-10.63,10.44-3-.31a6.15,6.15,0,0,0-5.49,2.28L538.59,196a5.26,5.26,0,0,0,.49,7.13,5.21,5.21,0,0,0,3.58,1.42,5.15,5.15,0,0,0,2.86-.86l24-15.63a4.4,4.4,0,0,0,1.88-4.72l-.34-1.41,10.63-10.43,3,.3a6.18,6.18,0,0,0,5.49-2.28l13.49-16.68a5.25,5.25,0,0,0-6.94-7.7Z"/>
              <path class="cls-10" d="M509.69,179.35a6.13,6.13,0,0,0-5.48-2.28l-3,.3L490.6,166.94l.34-1.41a4.44,4.44,0,0,0-1.88-4.72l-24-15.64a5.24,5.24,0,0,0-6.94,7.69l13.49,16.69a6.21,6.21,0,0,0,5.48,2.28l3-.3L490.67,182l-.33,1.41a4.41,4.41,0,0,0,1.88,4.72l24,15.63a5.24,5.24,0,0,0,6.94-7.69Zm-49.6-28.1Z"/>
            </g>
            <path class="cls-11" d="M564.31,173.67l6.53-6.41-10-10a33,33,0,0,1,0-46.62L571,100.48l-6.54-6.42-10.1,10.1a33,33,0,0,1-46.61,0L497.48,93.9,491,100.32l10.32,10.31a33,33,0,0,1,0,46.62l-10.18,10.17,6.54,6.41,10.11-10.11a33,33,0,0,1,46.61,0Z"/>
          </g>
          <g>
            <g class="cls-12">
              <path class="cls-13" d="M428.83,254.25A17.15,17.15,0,1,0,446,271.4,17.17,17.17,0,0,0,428.83,254.25Z"/>
              <path class="cls-13" d="M480.37,254.25a17.15,17.15,0,1,0,17.14,17.15A17.16,17.16,0,0,0,480.37,254.25Z"/>
              <path class="cls-13" d="M325.75,254.25A17.15,17.15,0,1,0,342.9,271.4,17.16,17.16,0,0,0,325.75,254.25Z"/>
              <path class="cls-13" d="M377.29,254.25a17.15,17.15,0,1,0,17.15,17.15A17.16,17.16,0,0,0,377.29,254.25Z"/>
              <path class="cls-13" d="M531.91,254.25a17.15,17.15,0,1,0,17.14,17.15A17.16,17.16,0,0,0,531.91,254.25Z"/>
              <path class="cls-13" d="M583.45,254.25a17.15,17.15,0,1,0,17.14,17.15A17.16,17.16,0,0,0,583.45,254.25Z"/>
            </g>
            <g>
              <path class="cls-14" d="M442.54,271.4a13.72,13.72,0,1,1-13.71-13.72A13.71,13.71,0,0,1,442.54,271.4Z"/>
              <path class="cls-14" d="M494.08,271.4a13.72,13.72,0,1,1-13.71-13.72A13.71,13.71,0,0,1,494.08,271.4Z"/>
              <path class="cls-14" d="M339.47,271.4a13.72,13.72,0,1,1-13.72-13.72A13.71,13.71,0,0,1,339.47,271.4Z"/>
              <path class="cls-14" d="M391,271.4a13.72,13.72,0,1,1-13.72-13.72A13.71,13.71,0,0,1,391,271.4Z"/>
              <path class="cls-14" d="M545.62,271.4a13.72,13.72,0,1,1-13.71-13.72A13.71,13.71,0,0,1,545.62,271.4Z"/>
              <path class="cls-14" d="M597.16,271.4a13.72,13.72,0,1,1-13.71-13.72A13.71,13.71,0,0,1,597.16,271.4Z"/>
            </g>
          </g>
        </g>
        <g>
          <path class="cls-1" d="M142.39,445.49l26.53-35.66a52.12,52.12,0,0,1,16.55-14.47L245.71,362a74.22,74.22,0,0,0,21.2-17.59l33.09-40A37.05,37.05,0,0,0,306.46,293l20.5-59a4.17,4.17,0,0,0-3.1-5.45c-8.92-1.89-29-1.31-40.73,36.65a13.13,13.13,0,0,1-3.57,5.7l-13.13,12.24a2,2,0,0,1-3.23-2.22l51.86-134.21c10-24.65-18.58-36-29.72-11l-30.72,66.63c-4.4-9.91-27.62-17.61-41.41-.73-2.35-4.86-26.47-15.25-37.8,8.23-5.82-3.7-19.24-5.35-28.22,10.62-7.87,14-30,76.75-41.07,109.67A86.52,86.52,0,0,1,84,365L0,445.49Z"/>
          <g>
            <path class="cls-2" d="M249.94,196.75a14.45,14.45,0,0,1,4.64,5.43l-14.9,31.37Z"/>
            <path class="cls-2" d="M166.57,231.05l5.54-22.86a15.33,15.33,0,0,1,3.3,1.55l.21-.41Z"/>
            <path class="cls-2" d="M213.21,201.51l.24-.27-13.33,29.38,9.17-32.46A9.61,9.61,0,0,1,213.21,201.51Z"/>
          </g>
          <path class="cls-15" d="M305.14,149.78l-14.3-6.08a2.56,2.56,0,0,1-1.36-3.35l3.36-7.91A10.32,10.32,0,0,1,306.38,127h0a10.32,10.32,0,0,1,5.47,13.54l-3.35,7.91A2.57,2.57,0,0,1,305.14,149.78Z"/>
        </g>
      </g>
    </g>
  </g>
</svg>
