<svg xmlns="http://www.w3.org/2000/svg" width="618.92" height="398" viewBox="0 0 618.92 398">
  <defs>
    <style>
      .cls-1, .cls-2 {
        fill: #fff;
      }

      .cls-1 {
        fill-rule: evenodd;
      }

      .cls-2 {
        font-size: 63.06px;
        font-family: LEMONMILK-Medium, LEMON MILK;
        font-weight: 500;
      }

      .cls-3 {
        letter-spacing: -0.07em;
      }
    </style>
  </defs>
  <g id="Layer_2" data-name="Layer 2">
    <g id="Layer_1-2" data-name="Layer 1">
      <g>
        <path class="cls-1" d="M566.07,309.53H471.46V292.11a8.4,8.4,0,0,1,8.47-8.47h60.24a26,26,0,0,1,25.9,25.89Zm-418.75,0V292.11a8.4,8.4,0,0,0-8.46-8.47H78.61a26,26,0,0,0-25.89,25.89ZM309.39,52.86h0a25.87,25.87,0,0,1,25.89,25.89V139a8.55,8.55,0,0,1-8.46,8.46H292A8.72,8.72,0,0,1,283.5,139V78.75a25.87,25.87,0,0,1,25.89-25.89ZM159.52,230.36c5.23,5.23-5.48,24.65-23.9,43.32l-1.74,1.5H98.77a135.82,135.82,0,0,1,17.43-20.92c18.67-18.42,37.84-29.12,43.32-23.9Zm229-71c-5.48,5.48-24.65-5.23-43.32-23.9l-1.74-1.74V98.67a142,142,0,0,1,21.16,17.67c18.42,18.43,29.13,37.84,23.9,43.07Zm-110-95.35c-7.22-4.23-15.93-11.2-24.15-19.42C235.7,26,225,6.55,230.22,1.33c5.48-5.23,24.9,5.47,43.32,23.89a135.41,135.41,0,0,1,19.17,23.66,33.53,33.53,0,0,0-14.19,15.18Zm-48.3,95.35c-5.22-5.23,5.48-24.64,24.15-43.07a141,141,0,0,1,20.91-17.67v35.1l-1.74,1.74c-18.42,18.67-37.84,29.38-43.32,23.9ZM326.07,48.88a135.87,135.87,0,0,1,19.17-23.66C363.91,6.8,383.08-3.9,388.56,1.33c5.23,5.22-5.48,24.64-23.9,43.31-8.46,8.22-16.93,15.19-24.4,19.42a33.47,33.47,0,0,0-14.19-15.18Zm-277.34,244a147.22,147.22,0,0,1-23.4-19.17C6.66,255-4,235.59,1.43,230.36c5.23-5.22,24.65,5.48,43.07,23.9a139.79,139.79,0,0,1,19.67,24.15,36.16,36.16,0,0,0-15.44,14.44ZM617.6,230.36c5.23,5.23-5.48,24.65-24.15,43.32a136.89,136.89,0,0,1-23.4,19.17,36.1,36.1,0,0,0-15.44-14.44,140.26,140.26,0,0,1,19.67-24.15c18.42-18.42,37.84-29.12,43.32-23.9ZM484.91,275.18l-1.5-1.5C464.74,255,454,235.59,459.26,230.36c5.48-5.22,24.9,5.48,43.32,23.9A135.25,135.25,0,0,1,520,275.18Zm-140.66-60a102,102,0,0,1,60.24,61.74c-2.74-.75-5.23-1.25-7.72-2-11.7-3.24-24.14-8-33.11-16.68s-13.44-21.91-16.92-33.86c-.75-3-1.75-6-2.49-9.21ZM214.54,276.92a100.93,100.93,0,0,1,60-61.74c-.75,3.23-1.74,6.22-2.49,9.21-3.49,12-8,25.14-16.93,33.86-8.71,8.71-21.41,13.44-33.11,16.68-2.49.74-5,1.24-7.47,2ZM295.7,155.68c-25.15,121.74-19.42,119-139.91,141.65v12.2h107a46.56,46.56,0,1,1,93.11,0h107.3v-12.2c-120.75-22.65-115-19.91-140.17-141.65Z"/>
        <text class="cls-2" transform="translate(22.99 380.54)">Drone <tspan class="cls-3" x="249.67" y="0">A</tspan><tspan x="294.1" y="0">cademy</tspan></text>
      </g>
    </g>
  </g>
</svg>
