<svg xmlns="http://www.w3.org/2000/svg" width="625.49" height="280.84" viewBox="0 0 625.49 280.84">
  <defs>
    <style>
      .cls-1 {
        fill: #8c9fa9;
      }

      .cls-2 {
        fill: #abb9c0;
      }

      .cls-3 {
        fill: #41555f;
      }

      .cls-4 {
        fill: #33424a;
      }

      .cls-5 {
        fill: #ced6da;
      }

      .cls-6 {
        fill: #f52a1f;
      }

      .cls-7 {
        fill: #e2e7e9;
      }

      .cls-8 {
        fill: #eaecee;
      }

      .cls-9 {
        fill: #f75f57;
      }

      .cls-10 {
        fill: #cad3d7;
      }

      .cls-11 {
        fill: #748b97;
      }

      .cls-12 {
        fill: #d8f1fc;
      }

      .cls-13 {
        fill: #d4dbde;
      }

      .cls-14 {
        fill: #d7dee1;
      }

      .cls-15 {
        fill: #0096e1;
      }

      .cls-16 {
        fill: #506975;
      }

      .cls-17 {
        fill: #e7eaec;
      }

      .cls-18 {
        fill: #edeff1;
      }

      .cls-19 {
        fill: #b0bdc4;
      }

      .cls-20, .cls-23 {
        fill: #28b2f1;
      }

      .cls-21 {
        fill: #1a2429;
      }

      .cls-22 {
        fill: #0e191e;
      }

      .cls-23 {
        opacity: 0.44;
      }
    </style>
  </defs>
  <g id="Layer_2" data-name="Layer 2">
    <g id="Layer_1-2" data-name="Layer 1">
      <g>
        <polygon class="cls-1" points="232.47 133.82 202.76 150.37 197.08 164.73 239.65 141.02 232.47 133.82"/>
        <polygon class="cls-1" points="421.81 150.37 392.1 133.82 384.92 141.02 427.48 164.73 421.81 150.37"/>
        <rect class="cls-2" x="304.26" y="170.91" width="16.09" height="22.02"/>
        <path class="cls-3" d="M288.61,159.55H336a0,0,0,0,1,0,0V164a6.88,6.88,0,0,1-6.88,6.88H295.5a6.88,6.88,0,0,1-6.88-6.88v-4.48A0,0,0,0,1,288.61,159.55Z"/>
        <path class="cls-3" d="M296.95,192.92h30.72a0,0,0,0,1,0,0v3.22a5,5,0,0,1-5,5H302a5,5,0,0,1-5-5v-3.22A0,0,0,0,1,296.95,192.92Z" transform="translate(624.62 394.08) rotate(180)"/>
        <path class="cls-4" d="M144.3,93.32H97.61a7,7,0,0,1-7-7h60.7A7,7,0,0,1,144.3,93.32Z"/>
        <g>
          <rect class="cls-1" x="304.26" y="188.54" width="16.09" height="4.38"/>
          <rect class="cls-1" x="304.26" y="170.91" width="16.09" height="4.38"/>
          <rect class="cls-1" x="304.26" y="179.73" width="16.09" height="4.38"/>
        </g>
        <path class="cls-5" d="M431.19,94.62l-46.67,27.53a97.77,97.77,0,0,1-49.17,13.55H289.21A97.77,97.77,0,0,1,240,122.15L193.37,94.62l54.38,54.53a40,40,0,0,0,26.91,10.4h75.25a40,40,0,0,0,26.9-10.4Z"/>
        <path class="cls-4" d="M480.26,93.32H527a7,7,0,0,0,7-7h-60.7A7,7,0,0,0,480.26,93.32Z"/>
        <path class="cls-6" d="M337.15,56.11a10,10,0,0,0-8.55-4.5H296a10,10,0,0,0-8.54,4.5l-7.9,12.68h65.49Z"/>
        <path class="cls-2" d="M205.31,106.62,157.17,228.51a6.84,6.84,0,0,0,3.85,8.87,6.71,6.71,0,0,0,2.51.49,6.84,6.84,0,0,0,6.36-4.33l46-116.34Z"/>
        <path class="cls-2" d="M419.25,106.62,467.4,228.51a6.84,6.84,0,1,1-12.73,5l-46-116.34Z"/>
        <path class="cls-7" d="M438.46,56.34,382.1,79.85a17.71,17.71,0,0,1-19.31-3.79l-1.65-1.65a19.37,19.37,0,0,0-13.64-5.62H277.1a19.33,19.33,0,0,0-13.63,5.62l-1.65,1.65a17.72,17.72,0,0,1-19.32,3.79L186.15,56.34A34.32,34.32,0,0,0,173,53.7H70.46A7.34,7.34,0,0,0,63.12,61V64.6H172.05a36.78,36.78,0,0,1,14,2.76l63.71,26.24a93.69,93.69,0,0,0,35,7h55a93.61,93.61,0,0,0,35.05-7l63.72-26.24a36.78,36.78,0,0,1,14-2.76H561.49V61a7.34,7.34,0,0,0-7.34-7.34H451.64A34.27,34.27,0,0,0,438.46,56.34Z"/>
        <path class="cls-8" d="M561.49,64.6l-108.91,0a36.58,36.58,0,0,0-14,2.78l-63.7,26.27a93.61,93.61,0,0,1-35.05,7h-55a93.69,93.69,0,0,1-35-7L186,67.34a36.58,36.58,0,0,0-14-2.78l-108.91,0v4.58A17.14,17.14,0,0,0,80.23,86.32l85.22,0a51.36,51.36,0,0,1,26.08,7.14l48.55,28.65a97.8,97.8,0,0,0,49.17,13.55h46.1a97.77,97.77,0,0,0,49.17-13.55L433.08,93.5a51.34,51.34,0,0,1,26.08-7.14l85.22,0a17.12,17.12,0,0,0,17.11-17.14Z"/>
        <g>
          <rect class="cls-6" x="100.72" y="64.61" width="9.48" height="21.71"/>
          <rect class="cls-6" x="131.76" y="64.61" width="9.48" height="21.71"/>
          <rect class="cls-6" x="116.24" y="64.61" width="9.48" height="21.71"/>
        </g>
        <g>
          <polygon class="cls-9" points="115.09 53.7 105.61 53.7 100.72 64.56 110.2 64.56 115.09 53.7"/>
          <polygon class="cls-9" points="146.14 53.7 136.66 53.7 131.76 64.56 141.24 64.56 146.14 53.7"/>
          <polygon class="cls-9" points="130.62 53.7 121.14 53.7 116.24 64.56 125.72 64.56 130.62 53.7"/>
        </g>
        <g>
          <rect class="cls-3" x="486.35" y="38.92" width="26.84" height="14.78" transform="translate(999.54 92.62) rotate(180)"/>
          <rect class="cls-10" x="494.88" y="16.59" width="9.79" height="13.85" transform="translate(999.54 47.02) rotate(180)"/>
          <rect class="cls-11" x="493.11" y="6.06" width="13.32" height="10.53" rx="1.72" transform="translate(999.54 22.65) rotate(180)"/>
          <path class="cls-11" d="M486.35,30.44h26.84a0,0,0,0,1,0,0v3.32A5.16,5.16,0,0,1,508,38.92H491.51a5.16,5.16,0,0,1-5.16-5.16V30.44A0,0,0,0,1,486.35,30.44Z" transform="translate(999.54 69.36) rotate(180)"/>
          <path class="cls-12" d="M506.43,8.24l21.39-5.89A65.58,65.58,0,0,1,545.22,0H624a1.52,1.52,0,0,1,.42,3l-61.6,17.64a64,64,0,0,1-34.69.14l-21.67-6Z"/>
          <path class="cls-12" d="M493.11,8.24,471.72,2.35A65.58,65.58,0,0,0,454.32,0H375.57a1.53,1.53,0,0,0-.42,3l61.6,17.64a63.94,63.94,0,0,0,34.68.14l21.68-6Z"/>
        </g>
        <g>
          <rect class="cls-3" x="112.3" y="38.92" width="26.85" height="14.78"/>
          <rect class="cls-10" x="120.83" y="16.59" width="9.79" height="13.85"/>
          <rect class="cls-11" x="119.06" y="6.06" width="13.32" height="10.53" rx="1.72"/>
          <path class="cls-11" d="M117.46,30.44H134a5.16,5.16,0,0,1,5.16,5.16v3.32a0,0,0,0,1,0,0H112.3a0,0,0,0,1,0,0V35.6A5.16,5.16,0,0,1,117.46,30.44Z"/>
          <path class="cls-12" d="M119.06,8.24,97.67,2.35A65.5,65.5,0,0,0,80.28,0H1.52A1.53,1.53,0,0,0,1.1,3L62.7,20.63a64,64,0,0,0,34.69.14l21.67-6Z"/>
          <path class="cls-12" d="M132.38,8.24l21.39-5.89A65.58,65.58,0,0,1,171.17,0h78.75a1.52,1.52,0,0,1,.42,3l-61.6,17.64a63.94,63.94,0,0,1-34.68.14l-21.68-6Z"/>
        </g>
        <path class="cls-6" d="M334.54,88.21H290.07a3.46,3.46,0,0,1-3.46-3.46h0a3.46,3.46,0,0,1,3.46-3.46h44.47A3.46,3.46,0,0,1,338,84.75h0A3.46,3.46,0,0,1,334.54,88.21Z"/>
        <g>
          <rect class="cls-6" x="515.03" y="64.61" width="9.48" height="21.71" transform="translate(1039.54 150.93) rotate(180)"/>
          <rect class="cls-6" x="483.99" y="64.61" width="9.48" height="21.71" transform="translate(977.45 150.93) rotate(180)"/>
          <rect class="cls-6" x="499.51" y="64.61" width="9.48" height="21.71" transform="translate(1008.5 150.93) rotate(180)"/>
        </g>
        <g>
          <polygon class="cls-9" points="510.13 53.7 519.62 53.7 524.51 64.56 515.03 64.56 510.13 53.7"/>
          <polygon class="cls-9" points="479.09 53.7 488.57 53.7 493.47 64.56 483.99 64.56 479.09 53.7"/>
          <polygon class="cls-9" points="494.61 53.7 504.09 53.7 508.99 64.56 499.51 64.56 494.61 53.7"/>
        </g>
        <g>
          <path class="cls-13" d="M284,129.23h0a1.75,1.75,0,0,1-1.75-1.75V108.82a1.75,1.75,0,0,1,1.75-1.75h0a1.75,1.75,0,0,1,1.75,1.75v18.66A1.75,1.75,0,0,1,284,129.23Z"/>
          <path class="cls-13" d="M292.06,129.23h0a1.75,1.75,0,0,1-1.75-1.75V108.82a1.75,1.75,0,0,1,1.75-1.75h0a1.75,1.75,0,0,1,1.75,1.75v18.66A1.75,1.75,0,0,1,292.06,129.23Z"/>
          <path class="cls-13" d="M300.16,129.23h0a1.75,1.75,0,0,1-1.75-1.75V108.82a1.75,1.75,0,0,1,1.75-1.75h0a1.75,1.75,0,0,1,1.75,1.75v18.66A1.75,1.75,0,0,1,300.16,129.23Z"/>
          <path class="cls-13" d="M308.26,129.23h0a1.75,1.75,0,0,1-1.76-1.75V108.82a1.75,1.75,0,0,1,1.76-1.75h0a1.75,1.75,0,0,1,1.75,1.75v18.66A1.75,1.75,0,0,1,308.26,129.23Z"/>
          <path class="cls-13" d="M316.35,129.23h0a1.75,1.75,0,0,1-1.75-1.75V108.82a1.75,1.75,0,0,1,1.75-1.75h0a1.75,1.75,0,0,1,1.75,1.75v18.66A1.75,1.75,0,0,1,316.35,129.23Z"/>
          <path class="cls-13" d="M324.45,129.23h0a1.75,1.75,0,0,1-1.75-1.75V108.82a1.75,1.75,0,0,1,1.75-1.75h0a1.75,1.75,0,0,1,1.75,1.75v18.66A1.75,1.75,0,0,1,324.45,129.23Z"/>
          <path class="cls-13" d="M332.55,129.23h0a1.75,1.75,0,0,1-1.75-1.75V108.82a1.75,1.75,0,0,1,1.75-1.75h0a1.75,1.75,0,0,1,1.75,1.75v18.66A1.75,1.75,0,0,1,332.55,129.23Z"/>
          <path class="cls-13" d="M340.65,129.23h0a1.75,1.75,0,0,1-1.75-1.75V108.82a1.75,1.75,0,0,1,1.75-1.75h0a1.75,1.75,0,0,1,1.75,1.75v18.66A1.75,1.75,0,0,1,340.65,129.23Z"/>
        </g>
        <g>
          <rect class="cls-14" x="267.81" y="201.32" width="89" height="72.45" rx="3.44"/>
          <path class="cls-3" d="M316.5,280.84h-8.39a2,2,0,0,1-1.73-1.65L305,273.77h14.68l-1.41,5.42A2,2,0,0,1,316.5,280.84Z"/>
          <rect class="cls-2" x="280.36" y="214.27" width="23.35" height="23.35"/>
          <rect class="cls-15" x="283.47" y="217.38" width="17.13" height="17.13"/>
          <path class="cls-2" d="M300.21,256.58a9.34,9.34,0,1,1-9.34-9.34A9.34,9.34,0,0,1,300.21,256.58Z"/>
          <rect class="cls-16" x="312.31" y="206.21" width="38.49" height="38.49" rx="1.72"/>
          <path class="cls-17" d="M347.46,225.45a15.91,15.91,0,1,1-15.91-15.89A15.91,15.91,0,0,1,347.46,225.45Z"/>
          <path class="cls-4" d="M343.79,225.45a12.24,12.24,0,1,1-12.24-12.23A12.24,12.24,0,0,1,343.79,225.45Z"/>
          <path class="cls-18" d="M297,256.58a6.12,6.12,0,1,1-6.12-6.12A6.12,6.12,0,0,1,297,256.58Z"/>
          <path class="cls-19" d="M348.35,261.16H330.12a2.45,2.45,0,0,0-2.45,2.45h0a2.45,2.45,0,0,0,2.45,2.45h18.23a2.45,2.45,0,0,0,2.45-2.45h0A2.45,2.45,0,0,0,348.35,261.16Z"/>
          <path class="cls-19" d="M319.63,261.16h-4.87a2.45,2.45,0,0,0-2.45,2.45h0a2.45,2.45,0,0,0,2.45,2.45h4.87a2.45,2.45,0,0,0,2.45-2.45h0A2.45,2.45,0,0,0,319.63,261.16Z"/>
          <path class="cls-20" d="M267.81,249.55l-5.23-1.87a2.45,2.45,0,0,1-1.62-2.3V229.71a2.45,2.45,0,0,1,1.62-2.31l5.23-1.86Z"/>
          <path class="cls-20" d="M356.81,225.54,362,227.4a2.45,2.45,0,0,1,1.62,2.31v15.67a2.45,2.45,0,0,1-1.62,2.3l-5.23,1.87Z"/>
          <path class="cls-21" d="M339.72,225.45a8.17,8.17,0,1,1-8.17-8.16A8.17,8.17,0,0,1,339.72,225.45Z"/>
          <path class="cls-22" d="M336.22,225.45a4.67,4.67,0,1,1-4.67-4.66A4.67,4.67,0,0,1,336.22,225.45Z"/>
          <path class="cls-23" d="M338,218a9.84,9.84,0,0,0-13.91,13.91Z"/>
        </g>
      </g>
    </g>
  </g>
</svg>
