<svg xmlns="http://www.w3.org/2000/svg" width="397.93" height="303.42" viewBox="0 0 397.93 303.42">
  <defs>
    <style>
      .cls-1 {
        fill: #b0bec5;
      }

      .cls-2 {
        fill: #455a64;
      }

      .cls-3 {
        fill: #263238;
      }

      .cls-4 {
        fill: #78909c;
      }

      .cls-5 {
        fill: #cfd8dc;
      }

      .cls-6 {
        fill: #101d23;
        opacity: 0.07;
      }

      .cls-7 {
        fill: #fff;
      }

      .cls-8 {
        fill: #37474f;
      }
    </style>
  </defs>
  <g id="Layer_2" data-name="Layer 2">
    <g id="Layer_1-2" data-name="Layer 1">
      <g>
        <rect class="cls-1" x="5.01" y="46.05" width="387.92" height="249.41" rx="12.85"/>
        <path class="cls-2" d="M255.87,36.39H245.26V21.22a10.63,10.63,0,0,0-10.62-10.61H163.29a10.62,10.62,0,0,0-10.61,10.61V36.39H142.07V21.22A21.24,21.24,0,0,1,163.29,0h71.35a21.25,21.25,0,0,1,21.23,21.22Z"/>
        <path class="cls-3" d="M86.59,303.42H39a3.53,3.53,0,0,1-3.45-2.77l-1.16-5.19H91.2l-1.15,5.19A3.54,3.54,0,0,1,86.59,303.42Z"/>
        <path class="cls-4" d="M136.1,36.39h22.71a4.3,4.3,0,0,1,4.2,3.36l1.4,6.3h-33.9l1.39-6.3A4.31,4.31,0,0,1,136.1,36.39Z"/>
        <path class="cls-4" d="M239.2,36.39h22.72a4.3,4.3,0,0,1,4.19,3.36l1.4,6.3h-33.9l1.4-6.3A4.3,4.3,0,0,1,239.2,36.39Z"/>
        <path class="cls-3" d="M354.07,303.42H306.5a3.54,3.54,0,0,1-3.45-2.77l-1.16-5.19h56.79l-1.15,5.19A3.54,3.54,0,0,1,354.07,303.42Z"/>
        <g>
          <path class="cls-5" d="M3.54,63.74H394.39a3.54,3.54,0,0,1,3.54,3.54V77.9a3.53,3.53,0,0,1-3.53,3.53H3.54A3.54,3.54,0,0,1,0,77.89V67.28A3.54,3.54,0,0,1,3.54,63.74Z"/>
          <path class="cls-5" d="M394.39,120.7H3.54A3.53,3.53,0,0,1,0,117.16V106.55A3.54,3.54,0,0,1,3.54,103H394.39a3.54,3.54,0,0,1,3.54,3.54v10.61A3.53,3.53,0,0,1,394.39,120.7Z"/>
          <rect class="cls-5" y="142.28" width="397.93" height="17.68" rx="3.54"/>
          <rect class="cls-5" y="181.55" width="397.93" height="17.69" rx="3.54"/>
          <rect class="cls-5" y="220.82" width="397.93" height="17.69" rx="3.54"/>
          <path class="cls-5" d="M3.53,260.09H394.39a3.54,3.54,0,0,1,3.54,3.54v10.61a3.54,3.54,0,0,1-3.54,3.54H3.54A3.54,3.54,0,0,1,0,274.24V263.63a3.53,3.53,0,0,1,3.53-3.53Z"/>
        </g>
        <rect class="cls-6" x="119.59" y="100.43" width="158.74" height="140.66"/>
        <rect class="cls-7" x="122.34" y="103.01" width="153.25" height="135.5"/>
        <g>
          <g>
            <path class="cls-4" d="M216.73,133.18a4.49,4.49,0,0,0,4,1.65l2.68-.31,9.15,9-.36,1.48a3,3,0,0,0,1.29,3.22L253.08,161a3.69,3.69,0,0,0,4.88-5.41l-11-13.63a4.48,4.48,0,0,0-3.95-1.65l-2.69.3-9.15-9,.36-1.49a3,3,0,0,0-1.28-3.21L210.6,114.14a3.69,3.69,0,0,0-4.88,5.41Z"/>
            <path class="cls-4" d="M187.33,114.14l-19.62,12.77a3,3,0,0,0-1.29,3.21l.38,1.47-9.14,9-2.72-.28a4.48,4.48,0,0,0-3.95,1.65l-11,13.63a3.69,3.69,0,0,0,4.88,5.41l19.63-12.77a3,3,0,0,0,1.28-3.22l-.37-1.46,9.13-9,2.72.28a4.51,4.51,0,0,0,4-1.65l11-13.63a3.69,3.69,0,0,0-4.89-5.41Z"/>
            <path class="cls-4" d="M253.08,180.55l-19.62,12.77a3,3,0,0,0-1.29,3.22l.37,1.46-9.13,9-2.71-.28a4.49,4.49,0,0,0-4,1.65l-11,13.63a3.69,3.69,0,0,0,4.88,5.41l19.63-12.77a3,3,0,0,0,1.28-3.22l-.37-1.46,9.13-9,2.72.28a4.47,4.47,0,0,0,3.95-1.65L258,186a3.69,3.69,0,0,0-4.88-5.41Z"/>
            <path class="cls-4" d="M181.2,208.34a4.5,4.5,0,0,0-4-1.65l-2.69.31-9.15-9,.36-1.48a3,3,0,0,0-1.28-3.22l-19.63-12.77A3.69,3.69,0,0,0,140,186l11,13.63a4.49,4.49,0,0,0,3.95,1.65l2.69-.31,9.15,9-.35,1.48a3,3,0,0,0,1.28,3.22l19.62,12.77a3.69,3.69,0,0,0,4.89-5.41Z"/>
          </g>
          <path class="cls-8" d="M226.69,203.75l5.33-5.24-8.6-8.59a26.94,26.94,0,0,1,0-38.08l8.72-8.72-5.33-5.24-8.67,8.68a26.94,26.94,0,0,1-38.08,0l-8.8-8.81L165.93,143l8.84,8.85a26.92,26.92,0,0,1,0,38.08L166,198.65l5.34,5.24,8.68-8.69a26.94,26.94,0,0,1,38.08,0Z"/>
        </g>
      </g>
    </g>
  </g>
</svg>
