<svg xmlns="http://www.w3.org/2000/svg" width="369.34" height="185.34" viewBox="0 0 369.34 185.34">
  <defs>
    <style>
      .cls-1 {
        fill: #40484c;
      }

      .cls-1, .cls-2, .cls-3, .cls-4, .cls-7 {
        fill-rule: evenodd;
      }

      .cls-2 {
        fill: #80d7de;
      }

      .cls-3 {
        fill: #232a2d;
      }

      .cls-4, .cls-5 {
        fill: #fefefe;
      }

      .cls-6, .cls-7 {
        fill: #63afb7;
      }
    </style>
  </defs>
  <g id="Layer_2" data-name="Layer 2">
    <g id="Layer_1-2" data-name="Layer 1">
      <g>
        <path class="cls-1" d="M24.1,0H345.23a24.16,24.16,0,0,1,24.11,24.1V161.32a24.14,24.14,0,0,1-24.11,24H24.1a24.13,24.13,0,0,1-24.1-24V24.1A24.15,24.15,0,0,1,24.1,0Z"/>
        <path class="cls-2" d="M43.16,11.84h283A2.17,2.17,0,0,1,328.35,14V171.4a2.1,2.1,0,0,1-2.18,2.1h-283A2.16,2.16,0,0,1,41,171.4V14a2.23,2.23,0,0,1,2.18-2.18Z"/>
        <path class="cls-3" d="M349.6,82.3a10.42,10.42,0,0,1,0,20.83,10.42,10.42,0,0,1,0-20.83Z"/>
        <path class="cls-4" d="M143.85,105.81h0a1,1,0,0,1-1,.93h-37v37a1,1,0,0,1-.92,1h0a1,1,0,0,1-1-1v-37h-37a1,1,0,0,1-1-.93h0a1,1,0,0,1,1-1h37v-37a1,1,0,0,1,1-1h0a1,1,0,0,1,.92,1v37h37a1,1,0,0,1,1,1Z"/>
        <path class="cls-5" d="M267.22,62.23A43.58,43.58,0,1,1,236.4,75a43.27,43.27,0,0,1,30.82-12.76Zm30.15,13.35a42.68,42.68,0,1,0,12.51,30.23,42.53,42.53,0,0,0-12.51-30.23ZM104.89,62.23A43.58,43.58,0,1,1,74.07,75a43.27,43.27,0,0,1,30.82-12.76ZM135,75.58a42.68,42.68,0,1,0,12.51,30.23A42.52,42.52,0,0,0,135,75.58Z"/>
        <path class="cls-4" d="M267.22,66.76h0a1.09,1.09,0,0,1,1,1v37h36.95a1,1,0,0,1,1,1h0a1,1,0,0,1-1,.93H268.23v37a1.09,1.09,0,0,1-1,1h0a1,1,0,0,1-1-1v-37h-37a.93.93,0,0,1-.93-.93h0a1,1,0,0,1,.93-1h37v-37a1,1,0,0,1,1-1Z"/>
        <rect class="cls-5" x="67.52" y="157.38" width="74.66" height="4.62"/>
        <path class="cls-4" d="M64.16,159.73l2-2.19v4.29Zm81.37,0-2-2.19v4.29Z"/>
        <rect class="cls-6" x="119.67" y="155.19" width="4.11" height="8.99"/>
        <path class="cls-7" d="M66.51,18.22H81.29A1.83,1.83,0,0,1,83.05,20v9.74a1.77,1.77,0,0,1-1.76,1.76H66.51a1.71,1.71,0,0,1-1.76-1.76V20a1.77,1.77,0,0,1,1.76-1.77Zm27.71,0h14.7A1.85,1.85,0,0,1,110.77,20v9.74a1.79,1.79,0,0,1-1.85,1.76H94.22a1.72,1.72,0,0,1-1.76-1.76V20a1.78,1.78,0,0,1,1.76-1.77Zm27.72,0h14.69A1.85,1.85,0,0,1,138.48,20v9.74a1.79,1.79,0,0,1-1.85,1.76H121.94a1.79,1.79,0,0,1-1.85-1.76V20a1.85,1.85,0,0,1,1.85-1.77Zm27.71,0h14.69A1.78,1.78,0,0,1,166.11,20v9.74a1.72,1.72,0,0,1-1.77,1.76H149.65a1.79,1.79,0,0,1-1.85-1.76V20a1.85,1.85,0,0,1,1.85-1.77Zm27.63,0h14.78A1.83,1.83,0,0,1,193.82,20v9.74a1.77,1.77,0,0,1-1.76,1.76H177.28a1.77,1.77,0,0,1-1.77-1.76V20a1.83,1.83,0,0,1,1.77-1.77Zm27.71,0h14.78A1.83,1.83,0,0,1,221.53,20v9.74a1.77,1.77,0,0,1-1.76,1.76H205a1.71,1.71,0,0,1-1.76-1.76V20A1.77,1.77,0,0,1,205,18.22Zm27.71,0h14.7A1.85,1.85,0,0,1,249.25,20v9.74a1.79,1.79,0,0,1-1.85,1.76H232.7a1.72,1.72,0,0,1-1.76-1.76V20a1.78,1.78,0,0,1,1.76-1.77Zm27.72,0h14.69A1.78,1.78,0,0,1,276.88,20v9.74a1.72,1.72,0,0,1-1.77,1.76H260.42a1.79,1.79,0,0,1-1.85-1.76V20a1.85,1.85,0,0,1,1.85-1.77Zm27.62,0h14.78A1.78,1.78,0,0,1,304.59,20v9.74a1.72,1.72,0,0,1-1.77,1.76H288a1.77,1.77,0,0,1-1.76-1.76V20A1.83,1.83,0,0,1,288,18.22Z"/>
        <path class="cls-3" d="M19,62.48h0A2.59,2.59,0,0,1,21.5,65v55.34A2.53,2.53,0,0,1,19,122.86h0a2.47,2.47,0,0,1-2.52-2.52V65A2.53,2.53,0,0,1,19,62.48Z"/>
        <rect class="cls-5" x="230.18" y="157.38" width="74.74" height="4.62"/>
        <path class="cls-4" d="M226.91,159.73l2-2.19v4.29Zm81.29,0-2-2.19v4.29Z"/>
        <rect class="cls-6" x="265.45" y="155.19" width="4.11" height="8.99"/>
        <path class="cls-4" d="M104.89,97.33a8.44,8.44,0,1,1-8.48,8.48,8.44,8.44,0,0,1,8.48-8.48Z"/>
        <path class="cls-4" d="M267.22,97.33a8.44,8.44,0,1,1-8.48,8.48,8.44,8.44,0,0,1,8.48-8.48Z"/>
      </g>
    </g>
  </g>
</svg>
