<svg xmlns="http://www.w3.org/2000/svg" width="705.78" height="640.9" viewBox="0 0 705.78 640.9">
  <defs>
    <style>
      .cls-1 {
        fill: #fff;
        fill-rule: evenodd;
      }
    </style>
  </defs>
  <g id="Layer_2" data-name="Layer 2">
    <g id="Layer_1-2" data-name="Layer 1">
      <g>
        <path class="cls-1" d="M531.31,56.23c6.51-4.75,19.33-4.2,19.47-13.7C551,29.18,515,21.72,498.15,20.18c19.52-3.18,59.32,3.8,57,23.8C554,53,542.27,57.81,531.31,56.23Z"/>
        <path class="cls-1" d="M476.53,20.91c1.2,3-9.72,6.06-11.54,10.81-1.72,14.46,10.94,14.54,17.31,20.91-7.64-1.81-19-5.68-20.91-13C458.54,28.68,466.66,22.82,476.53,20.91Z"/>
        <path class="cls-1" d="M390,28.84c2.36,4.82,1.73,20.74,0,28.11C388.19,49.73,389.46,37.89,390,28.84Z"/>
        <path class="cls-1" d="M524.1,30.28c-8,2.3-21.85-1.19-28.83,2.16,8.72,1.85,21.22-.07,28.11,3.61-.28,3.32-4.44,2.76-7.93,2.88,1.59,1.06,3.74,1.55,3.61,4.33-8.4,5.06-14.43-3.52-22.35-3.61-1-2.28-.16-2.41,0-5-3.45-.39-7.24-.44-10.09-1.44C493.59,26.52,513.21,28.69,524.1,30.28Z"/>
        <path class="cls-1" d="M608.45,41.09c-18.27-.62-41.09,6.76-31.71,24.51C556,54.7,588.23,29.56,608.45,41.09Z"/>
        <path class="cls-1" d="M629.36,42.53c-3.88,1.23-13,1.43-15.86-.72C617.58,37.92,624.8,42.22,629.36,42.53Z"/>
        <path class="cls-1" d="M646.66,49c14.13-.27,32.87,16.29,21.63,31-4.16,5.45-13.35,9.13-23.07,7.93,3.24-4,9.11-2.12,13-4.32,6.13-3.49,9.26-13.49,7.21-20.19C663,55.55,652.9,52.53,646.66,49Z"/>
        <path class="cls-1" d="M648.83,60.56c-11.26-2.68-30.3-7.79-45.42-2.89,9.23,4.23,24.05,2.87,31.72,8.66.47,2.87-2.74,2.06-5,2.16-1.41,1.23-.23,5.05-2.16,5.77-2.7,1.31-6.53.59-8.65-.73-.57-2.49.8-3,1.44-4.32-2.25-2.8-7.86-2.24-7.93-7.21-5.44-.58-11-1-14.42-3.61,4.51-6.37,17-6.61,26.67-5.76A55.36,55.36,0,0,1,648.83,60.56Z"/>
        <path class="cls-1" d="M455.62,57.67C442,60,428.37,60.2,419.57,68.49c2.19,8.38,10.19,11,18,13.7-7.73.18-21.29-3-22.35-10.1C413.32,59.18,440.25,55.62,455.62,57.67Z"/>
        <path class="cls-1" d="M464.27,57.67c11.73-4.74,39.66,8.86,21.63,15.86-.47-2.86,1.9-2.89,1.44-5.76C482.09,62,473.16,59.83,464.27,57.67Z"/>
        <path class="cls-1" d="M459.94,67.05c-5.68,1.76-11,3.86-18,4.32C442,63.77,454.7,65.29,459.94,67.05Z"/>
        <path class="cls-1" d="M458.5,73.53c1.29,9.4-13.21,5.3-10.09-.72C452.07,72.21,455.82,71.59,458.5,73.53Z"/>
        <path class="cls-1" d="M583.94,72.09c3.85,0,6.73,1,7.93,3.61C588.59,75.14,584.6,75.28,583.94,72.09Z"/>
        <path class="cls-1" d="M224.21,74.26c6.19.29,9.81,9.4,13.69,14.41C232.69,87.39,228.4,79,224.21,74.26Z"/>
        <path class="cls-1" d="M266,88.67c1.28.53.1,1.32,0,2.17-17.31,17.53-34.09,35.6-54.07,50.46C228.84,122.63,247.34,105.56,266,88.67Z"/>
        <path class="cls-1" d="M580.34,96.6c12.89-1.75,26.18,9.16,23.07,21.63-3.6,14.42-42.92,14-51.91,2.88,7.49.23,16.65,7.6,28.12,5.77,8.84-1.4,20.3-8.56,20.18-15.14C599.64,102.47,587.34,100.82,580.34,96.6Z"/>
        <path class="cls-1" d="M387.13,101.65c.73,12,2.52,31.35-2.88,39.65C385.76,128.63,385.47,114.17,387.13,101.65Z"/>
        <path class="cls-1" d="M515.45,121.11c-13.05,15.54-29.79,27.4-45.41,40.38C483.88,146.73,498.41,132.66,515.45,121.11Z"/>
        <path class="cls-1" d="M542.85,144.18c2.49,4.86,1.58,15.68.72,21.63C540.48,160.69,542.77,150.7,542.85,144.18Z"/>
        <path class="cls-1" d="M428.22,162.21c2.57,3.69,2.87,9.63,2.89,15.86C427,176.17,428.21,166,428.22,162.21Z"/>
        <path class="cls-1" d="M302.79,175.91c2.41.22,2.87,2.4,3.6,4.32C304.94,179,303,178.29,302.79,175.91Z"/>
        <path class="cls-1" d="M431.11,197.53c.12,4.94-7,8.82-11.54,11.54C422.1,203.91,427.14,201.26,431.11,197.53Z"/>
        <path class="cls-1" d="M232.13,212c8.61,1.73,17.64,9.28,25.23,14.42C249.29,224.11,239.44,217.38,232.13,212Z"/>
        <path class="cls-1" d="M217,213.39c.83-.12,1.27.16,1.44.72-2.83,15.79-5.72,30.23-9.37,46.86-1.06,4.8-4.13,11.51-3.61,15.14,1,6.91,14.12,15.14,18.75,19.47,7.08,6.64,14.66,12.19,18,18.74-14.12-9.42-24.73-22.37-37.48-33.16-5.27,16.12-8.15,34.63-13,51.18.51-13.33,3.69-26.25,7.21-40.37,1-4.08,3.46-10,2.89-13-1.75-9.26-19.62-15.19-22.35-24.5,8.58,5.59,14.69,13.66,22.35,20.18C209.29,256.64,210.21,232.07,217,213.39Z"/>
        <path class="cls-1" d="M582.5,220.6c1.2,3-4.84,5.63-8.65,7.93-4.17,2.52-9.08,5.14-12.25,7.21C563.86,228.87,575.71,225.35,582.5,220.6Z"/>
        <path class="cls-1" d="M542.13,230.69c2,24.77,3.66,57.27.72,82.19C541.17,286.93,542.61,257.85,542.13,230.69Z"/>
        <path class="cls-1" d="M283.32,241.51c5.89.11,7.8,4.21,11.54,6.49C291.84,247.88,284.57,245.79,283.32,241.51Z"/>
        <path class="cls-1" d="M356.13,296.3c-1.1,3.83-11.39,2.4-13.7.72C345.59,296.83,352.35,295.23,356.13,296.3Z"/>
        <path class="cls-1" d="M632.24,343.16c-34.63,3.58-73.15,3.26-111,3.6A916.93,916.93,0,0,1,632.24,343.16Z"/>
        <path class="cls-1" d="M679.1,343.16c-.69,1.46-2.76,1.55-5.05,1.44C673.48,341.86,677.47,343.68,679.1,343.16Z"/>
        <path class="cls-1" d="M137,350.37c-12.41,4.74-28.5,1-44,2.16-8.42.61-22.2,1-32.44.72C83.77,350.47,112.74,349.74,137,350.37Z"/>
        <path class="cls-1" d="M196.81,349.65c-2.68,3.86-10.49,2.16-16.58,2.16-6.3,0-12.82.55-17.31-.72C171.84,348.23,185.64,350.26,196.81,349.65Z"/>
        <path class="cls-1" d="M243,351.81c-9,4.11-25.38,1.57-35.33,0-.13-.62.28-.68.73-.72C218.94,349.5,231.81,351.56,243,351.81Z"/>
        <path class="cls-1" d="M22.35,352.53c-4.05,4.14-15.72,2.8-22.35,2.16C5.75,352.27,14.2,352.56,22.35,352.53Z"/>
        <path class="cls-1" d="M302.07,369.11c-4.7,10.44-10.8,25.74-18,36.05C288.49,391.58,294.12,379.19,302.07,369.11Z"/>
        <path class="cls-1" d="M234.3,379.2c1.36,3.15-8,7.83-12.26,10.1C221.94,384.63,230.59,382.47,234.3,379.2Z"/>
        <path class="cls-1" d="M478,386.41c5.9,6.11,8.15,15.88,10.09,26C481.93,406.48,481.85,394.55,478,386.41Z"/>
        <path class="cls-1" d="M215.56,390.74c-5.17,6.76-14.13,10.18-21.63,14.42-7.67,4.32-15.59,8-22.36,13-2.11,10.38-5.1,19.88-7.2,30.28-1.83-9.76,4-18.07,4.32-28.11-17.83,7.64-32.4,18.54-50.46,25.95,15.64-12,35.11-20.16,51.9-31,2.42-7,2.33-16.42,6.49-21.63-.23,7.46-2.78,12.6-3.6,19.47C187.64,406.08,199.8,396.62,215.56,390.74Z"/>
        <path class="cls-1" d="M676.22,403c-1.86,3.92-10.44,7.35-18,7.93C662.24,406.31,670.17,405.59,676.22,403Z"/>
        <path class="cls-1" d="M607.73,434c1.85,0,.88.53.72,1.44-43.85,21-86.31,43.45-133.36,61.27,9.48-7.58,21.47-11.59,32.43-16.58C540.53,465.11,574.51,449.35,607.73,434Z"/>
        <path class="cls-1" d="M496.71,438.32a121.16,121.16,0,0,1,10.81,35.33C502.47,463.32,499.7,450.71,496.71,438.32Z"/>
        <path class="cls-1" d="M268.18,452.74c-3.36,1.86-10.17-4.52-15.86-5.05C256.24,442.93,266.64,448.15,268.18,452.74Z"/>
        <path class="cls-1" d="M480.85,447.69c3-1.07,8.31,1.77,10.82,3.6C487.64,453.37,484.23,448.65,480.85,447.69Z"/>
        <path class="cls-1" d="M263.85,454.18c-14.56-1.46-17.6,14.49-27.39,20.19C238.74,461.83,249.84,447.92,263.85,454.18Z"/>
        <path class="cls-1" d="M626.48,459.23c10.08,4.09,21.09,13.5,28.84,22.34C643.93,475.9,635.45,467.31,626.48,459.23Z"/>
        <path class="cls-1" d="M512.57,462.11c3.53-.39,10.34,2.15,12.26,5.77C519.76,466.93,516.64,464.05,512.57,462.11Z"/>
        <path class="cls-1" d="M80.74,467.88c-5.2,6.33-12.84,10.23-20.91,13.69A58.49,58.49,0,0,1,80.74,467.88Z"/>
        <path class="cls-1" d="M545,477.25c8.44,1.66,17.57,5.94,26,10.09s17.71,7.8,23.06,14.42C576.45,494.84,561.41,485.37,545,477.25Z"/>
        <path class="cls-1" d="M152.83,490.22c3.1,1.41-.68,5.86-.72,8.66C150.44,496.92,152.41,492.48,152.83,490.22Z"/>
        <path class="cls-1" d="M514.73,499.6c4.78,10.84,7.79,23.44,11.54,35.32,16.68-6.39,31-15.18,49.74-19.46-15,8.83-33,14.6-49,22.34,1.25,5.48,3.63,9.83,3.6,16.59-5.11-2.82-2.51-13.35-7.21-16.59C523.33,525.1,515.92,513.57,514.73,499.6Z"/>
        <path class="cls-1" d="M189.6,515.46c2.27,6.62,4.21,13.57,4.33,22.34C189.13,533.72,189.74,524.2,189.6,515.46Z"/>
        <path class="cls-1" d="M459.22,526.27c-1.53,5-8.56,10.65-13.7,14.42C449,534.78,454.6,531,459.22,526.27Z"/>
        <path class="cls-1" d="M480.13,550.78c1.36,1.85-7.64,3.8-11.53,5.05-5.05,1.62-10.11,3.91-14.42,4.32C460.69,554.89,471.06,553.49,480.13,550.78Z"/>
        <path class="cls-1" d="M413.08,555.83c3.24-1.05,7.45,3.11,9.38,5.77C418.82,563.06,416,557.46,413.08,555.83Z"/>
        <path class="cls-1" d="M346.76,573.85c-.64.32-1.29.64-1.44,1.44C337,574.48,346.93,564.59,346.76,573.85Z"/>
        <path class="cls-1" d="M437.59,573.85c3.25-1.54,7.41,2.19,10.1,3.6C443.73,579.71,441.18,574.37,437.59,573.85Z"/>
        <path class="cls-1" d="M199,578.18c3,8,4.52,17.58,4.33,28.84C199.49,599.77,200,588.21,199,578.18Z"/>
        <path class="cls-1" d="M418.13,628.64c10.05,1.73,18,5.52,25.95,9.37C435.51,637.69,423.64,634.44,418.13,628.64Z"/>
        <path class="cls-1" d="M646.66,0c-6.44,12.06-21.14,22.12-33.88,30.28-1-3.44,4.37-4.88,7.21-7.21C628.32,16.24,637.35,6,646.66,0Z"/>
        <path class="cls-1" d="M536.36,90.12c-4.51,9.09,11.43,22.13,16.58,9.37-1.89-.91-5.56,2.58-7.21,4.32-7.6.64-9.24-9.91-4.32-13.69,3.87-.59,5.91,1.46,8.65,0-1.65-1.72-4.39-2.35-7.93-2.17,13.06-9.43,20.25,16.2,7.93,19.47C541.22,109.76,528.41,98.71,536.36,90.12Zm9.37,4.32c-1,3.65,3.54,3.36,4.33,1.44C548.1,95,548.26,93.1,545.73,94.44Z"/>
        <path class="cls-1" d="M250.88,108.14c5.15,1,8.94,6.71,12.25,10.81,10.12,12.52,20.34,27.9,29.56,41.82C278.36,146.5,263.47,126.54,250.88,108.14Z"/>
        <path class="cls-1" d="M95.88,129.05c21.57,10.63,39.19,25.21,58.39,38.2C134.88,157.33,113,143.61,95.88,129.05Z"/>
        <path class="cls-1" d="M41.81,133.37c4.06.28,9,5.87,12.26,9.37C49.65,142.83,45.91,136,41.81,133.37Z"/>
        <path class="cls-1" d="M705.78,142.74c-27.74,22-60.67,38.81-90.84,58.4,12.46-11.16,29-20,44.7-29.56C675,162.16,689.55,150.27,705.78,142.74Z"/>
        <path class="cls-1" d="M346.76,175.91c1.87,3.11,10.69-3.08,16.58-2.89,1.54,3.47-5.37,4.06-6.49,7.21a50.34,50.34,0,0,0,10.82-3.6c3.19,1,.18,3.83-.72,5a43.22,43.22,0,0,1,25.95,18.75,69.62,69.62,0,0,1-7.21-1.45c1.27,3.78,5.22,4.87,6.49,8.66-1.23,7.26-3.19,20.17,2.16,26.67.26,15.15-2.93,26.86-13.7,31,3.4,7.48-3.1,15.61-6.48,20.91-2.66,10.64,6.17,13.44,5.76,19.46-3.47,2.38-4.67-2.75-7.21-3.61-1.53,1.84-.17,6.55-3.6,6.49-1.69-5-.56-12.93.72-17.3-1.9-1.14-5.31,2.35-7.21,3.61,3.23-8.31,16.57-12.75,15.86-27.4-6.39.21-24.77,3-30.28-2.16-7.16,3.7-21.1.88-31,.72,2.21,15.34,17,22,23.79,30.28-7.43-.5-9.43-6.43-15.14-8.65,1,7.18,5.53,13.74,4.33,20.9-3.68-.88-4.26-4.87-5.05-8.65a16.94,16.94,0,0,1-8.65,5.77c3.29,7.53,10.58,11.05,14.42,18-4.79-3.44-11-5.25-14.42-10.09-2-2.74-1-8.16-5.76-8.65a3.46,3.46,0,0,1-2.17.72c.4,7.52,7.48,12.69,10.82,19.46,8.68,1.94,16.3,9.57,26.67,10.1,10.22.52,37.22-10.28,42.54-18.75,1.58-2.52,1.59-5.76,2.16-7.93-.71-1-1.93-1.44-2.89-2.16-5.58,10.85-18.25,20.3-33.88,22.35-6.17.81-16.85,1.19-20.19-4.33,21.28,4,45.56.41,47.59-19.46,3.14-.94,6-2.18,10.09-2.16a13.26,13.26,0,0,1,5.05,7.21c3.26,1.05,6.56,2.08,8.65,4.32,6.94.27,13.75.66,15.85,5.77,18.61,3.47,19.4,19,25.24,38.93,3.31,11.33,6.69,18,7.93,28.11,1.49,12.28,10.34,21.44,7.93,32.45.09,2.54,2.06,3.22,2.16,5.76,1,3.59-2.22,3.07-2.16,5.77,2.29,18.92,2.32,35.62,1.44,54.07-.24,5-.43,11.1-2.88,13.7-4.57,4.83-13.54,7.33-19.47,10.09-9.7,4.51-17.8,17.61-29.56,18-4.07,6.5-12.45,8.69-13.69,18-12.14,3.45-28,18.9-40.38,8.66.27-3.82,3.24-4.93,5.77-6.49-.92-1.24-2.87-1.45-3.6-2.89-.74-3.13,1.49-3.31,2.16-5-3.66-1.15-7.1-2.51-12.26-2.17-5.21,6.57-2.1,21.45-5.05,30.28-2.62-8.6,0-18.17-.72-28.83-3.24-.12-6.4-.16-7.2,2.16-.55,2.71,3.82.5,2.88,3.6.41,3.54-2.61,3.65-5.05,4.33-.29,1.74,1.32,1.57.72,3.61-13.14,8.85-28.83-5.24-40.36-9.38-1.08-9.5-10.21-10.94-13.7-18-3,.56-3.7-1.11-6.49-.72-9.54-6.56-18.31-13.9-28.12-20.19-8.27.58-11.09-4.29-15.86-7.21-1.14-11.21-2.51-29.53-1.44-42.53.89-10.88,7.2-19.28,7.93-28.12-1.68-3.12-4.54-5.08-5.77-8.65,5.31-25.87,17.8-45.45,20.91-69.93,4.4-9.06,7.22-19.7,13.7-26.67,11.89-5.42,23.79-10.82,36.77-15.14,1.82-.58,1.83-3,2.88-4.33,6.91-1,16.17.32,18-5.76-1.26-3.79-2.55-7.54-2.16-13-2.37-4.84-6.5-7.92-5.77-15.86-3.14-2.87-7.49-4.52-7.21-10.81-8-1-6.29-15.2-3.6-20.91,2.58-.25-.26,2.62,1.44,4.33,1.88-5.35-.24-14.26,1.44-18C296,192.08,329.29,185.19,346.76,175.91Zm2.16,86.51c6.92,5.53,22,1.82,32.45,2.16-1-2.7,4-1.52,5-3.61,3.5-6.77-2.27-23.33-2.16-31-2,0-4.63-3-6.49-.72,1.93,1,4.71,1.06,5.05,3.61a102.12,102.12,0,0,1-.72,28.11c-7.49,3.39-16.2,5.34-25.24,3.61-3.14-.6-5.61-3.49-8.65-3.61-4.94-.19-10.2,4.25-15.86,2.17C336.46,268.61,342.93,263.11,348.92,262.42Zm8.65,75.69C334.94,345.76,314,323.78,307.11,310c-14.55,6.11-32.73,8.6-44,18-9.08,29.84-18.93,58.92-28.11,88.67,1,1.67,3,2.24,3.6,4.33,5.81-3.38,8.76-11.61,15.14-21.63,4-6.24,8.23-13.53,12.26-18,2.17-2.43,6.12-4.6,7.21-6.49,2.94-5.13-3.34-8.25-2.89-12.26,2.59,2.68,9.5,3,10.82,7.93.69,2.6-1.32,6.45-1.45,9.37-.2,4.5,1.72,8.94.73,13.7-.38,1.8-1.92,3.15-2.17,5.05-2.07,15.74,3.64,32.07,2.89,44-2.09.87-3.29-4.33-3.61-.73,5.58,3.74.26,16.87-5.77,10.1,4.47-3.51,6.17-11.84,5.05-18.75-10.85,4.68-24.2-3.17-36-4.32-5.39,18.8-18.27,51.62-2.16,68.48-.46-2.44-3.66-5.91-2.16-7.93,4.49,3.2,9,6.34,10.81,12.26,10.87-2.05,14.72,8.06,25.23,8.65,1.08-3.5,1.85-7.29,5.05-8.65-1.66,4.11-1.8,9.73-2.16,15.14,2.48,2.43,4.62,4.45,7.93,4.33,2.31,4.4,7.63,7.88,10.81,12.25,1.91,2.62,2.53,9.14,7.22,7.21-2.74-1.59-1.55-7.11-3.61-9.37,9.93,9.33,15.95,23,34.6,21.63-2.54-10.31-14.11-6.72-19.46-14.42-4-5.71-2.33-13.2-3.61-20.19-4.55-3.07-4.06-10.65-6.48-13,11.35-.5,11.08,14.34,21.62,12.26.62-6.38-5.22-6.31-4.32-13a32.56,32.56,0,0,0-32.44-5c.22-1.69,1.41-3,0-4.33-7.78-4.48-9.73-14.78-15.15-21.62,2-.6,1.88,1,3.61.72-.74-11.31,2.3-18.85,5.05-26.68a52.44,52.44,0,0,1,1.44,16.58c2.92-.92,2.87-4.81,5-6.49-1.88,9.11-8.46,24.6-.73,32.44-2.27-11.74,4.14-24.62,10.1-28.11-2.42,8.12-7.57,16.67-5.77,26.67,11.48-3.17,5.94-23.38,18.75-25.23,1.39,8.44-7.2,12.95-6.49,23.07,2.71.56,3.44-.88,5.76-.72,3.17-3.22,1.73-9.14,2.17-14.42,1.29-15.71,10.15-27.56,12.25-39.65-7,7.15-9.78,18.58-23.07,19.46-4.61.42-2.52-13.75-5-8.64-.16-20.22,8.63-32.6,15.86-46.14,6.18-11.61,13.33-22.69,22.34-29.56-7.29,11-15.43,23.48-21.62,36.76-6,13-14.75,28.13-10.09,44.7C322,438.79,330,416.24,341,398a204.84,204.84,0,0,1,18.75-26c8.68-10.24,15.43-22.09,25.95-27.39-12.95,14.69-24.85,34.26-35.33,49,3.08-3.41,6.19-6.79,11.54-7.93-16.23,20.54-33.64,39.89-38.93,71.37,11.58-9,18-20.52,26.67-32.44,4.12-5.67,9.35-10.91,13.7-16.58,14.63-19.07,20-45.48,41.82-57.67-7.2,10.1-16.18,18.43-22.35,29.55,2.19,0,4.74-.41,4.32,2.17-5.64,10.7-16.06,16.62-15.86,33.16-2.56-.32-1.4-4.36-2.88-5.77-6.5,13.21-15.75,27.5-18,42.54,12.51-25.47,30.35-45.59,46.15-67.77,1.78-.11,2.22,1.13,3.6,1.44,5.75-7,12.52-16.78,18.74-20.91-1,.48-1.34,1.55-1.44,2.89,2.78-.37,5-5,7.21-3.61-3.23,6.63-2.49,21.06-3.61,27.4,4.78-6.76,10.67-16.25,16.58-19.47-5,11.31-17.55,19-18.74,31.72.08-.87.22-1.7,1.44-1.44.47,3.86-.94,9.6.72,12.26,2.76-5.95,7.38-11.93,11.54-17.31s7.91-12.88,14.42-13.69c-9,14.28-21.67,25-26.68,43.25,12.13-6.61,15.79-21.7,27.4-28.83,2-.6,1.87,1,3.6.72-2.49-4.34,0-5.08,1.45-8.65.3-7.57-5.84-12.89-7.94-20.19-3.08-10.74-3.74-21.91-7.93-30.28-6.76-12.7-16.23-22.69-35.32-23.07a43,43,0,0,0-7.21-2.88A83.48,83.48,0,0,1,357.57,338.11Zm-17.3-131.93c1.12-1.78,5.34-4.24,3.6-6.48C343,201.75,338.67,204.07,340.27,206.18Zm28.84-1.44c-4,.2-9.82,4.51-15.14,5.77-2.76-1.28-5.49-2-7.21.72,10.1.24,21.8-1.13,28.12,2.88-11.65,1-26.43-.72-38.94-.72-5.25,0-11.67-.2-15.13,2.89,20.62-2.93,43.23-.3,62.72,2.16C379.06,213.54,373.47,209.75,369.11,204.74Zm19.47,23.07c.68-11.93-13.78-7-23.8-7.93-15.28-1.35-36.51-2.7-46.14-1.44-4,.53-9.41,2.89-8.64,7.21,3.18-2.79,9.82-3.89,14.41-1.44-6,1.27-12.12,1.78-13.69,7.2-2.3,7.92,3.25,22.25,2.16,31,1.47,1.38,4.72.48,5.76-.72-2.35.18-3.46-.86-3.6-2.89.44-10.86-1.26-23.85,3.6-30.28-.51,4,.38,3.88,2.17,4.33-1.81,1.81-3.74,7.29-2.17,10.09,2-4.74,4.7-8.77,9.38-10.81-1.64,5.09-7.41,9.89-6.49,15.14,3.72-6.62,8.71-12,13.69-17.31-3.79.2-6.91-.29-8.64-2.16,13.54-2.62,32.82,1.94,44-.72-13.33-1.32-29.23-.08-40.37-3.61,16.85-1.71,35.23,0,51.19,1.45,1.31,0-1.38-3.63,1.44-3.61h2.88C383.9,225.41,385.06,228.52,388.58,227.81Zm-64.17,27.4c3.88-3.27,9.84-11.16,6.49-15.14C329.25,245.15,323.59,250.05,324.41,255.21Zm10.09-.72c1.08-2.93,6.59-8.59,4.33-10.1C337.83,247.73,333.29,251.33,334.5,254.49Zm56.24,154.27c-.89,3.29,2,2.83,1.44,5.77-4.5,4.63-10.43,11.67-9.37,19.47,7.75-12,16-23.39,23.79-35.33,9.23-2.78,9.13-14.9,10.09-25.95-.16-.57-.6-.84-1.45-.73A272.33,272.33,0,0,0,390.74,408.76Zm-145.63,13c13.54-7.13,18.44-22.89,28.84-33.16-1.53-3,.86-10-2.17-11.54C262.71,391.75,251.86,404.7,245.11,421.74Zm13,.72c7.06-5.44,10.95-14,15.15-22.35.95,0,.65,1.26,1.44,1.44-.46-2.43.92-6.69-.72-7.93C267.72,402.29,261.94,411.42,258.08,422.46Zm143.47,0c6.81,1.21,6.68-4.84,7.93-11.54,1-5.13,6.61-9.37,3.6-11.53C410.61,408.44,403.67,413.05,401.55,422.46Zm31,1.44c5.31-6,23-15.54,18.74-24.51C445.3,407.81,437.65,414.59,432.55,423.9Zm-187.44,2.16c2,.64,3.56,1.73,5.77,2.17-1-3.67,5.18-7,1.44-8.65C250.89,422.72,247.24,423.62,245.11,426.06Zm163.65,6.49c1.52.64,1.25,3.08,3.6,2.89-1.24-4.35,3.95-9.22,0-11.54C411.75,427.37,409.37,429.08,408.76,432.55Zm-35.32,91.56c-11.84-1.8-21.8-4.77-34.61-4.33-2,.13-.9,3.43-3.61,2.89-4.26.9-4.77-2-7.2-2.89-2.9,5.73-12.15,2.61-14.42.73a37.86,37.86,0,0,0-.72,13.69c3.36-1.94,8.84-5.56,14.41-2.88-4.71,1-9.35,2.18-10.81,6.48a37.43,37.43,0,0,0,7.93,5.77c3.6-.65,5.76-4.16,9.37-5.77s8.82-.36,10.81-4.32c-1.57-3.83-9.89.82-10.81-2.16,1.83-4.49,11.38,2.86,12.26-2.89.25-2.89-5.67.38-4.33-3.6,2.86-.91,12.44-2.36,12.26,2.16-1.14,1.5-5.73-.43-5.05,2.89,2.69,1.87,9.76-.63,10.82,2.88-3.71.86-11.18-2-11.54,2.16,10.69-.11,21.1.05,24.51,7.21,3.12-.24,3.23-3.51,7.21-2.88-2.5,9-17.94,5.13-19.46,15.14,18.3,3.14,26-14.35,34.6-20.91-1.87,2.7-1.36,7.77-3.6,10.09,2.11.19,2.21-1.63,4.33-1.44,2.83-9.42,9.95-14.55,16.57-20.18,1.6-4.35,3-9.62,2.88-13.7.59,2.78,3.22,3.51,2.89,7.21,13.1-12,36.09-9.65,41.09-29.56.12.85-.12,2.05.72,2.16,5.25-17.19-2.52-39-5-55.51-13.95-2.26-21.49,5.13-36,4.33-1.23,9.64,2.55,14.27,5.77,19.46,1-5.24,7.4-8.93,13-7.21-3.42.2-6.61,4.41-6.48,5.77,12.08-3.22,24.14,8.69,23.07,20.91-7-7.84-13.93-25-29.56-17.31,1.48,1.54-2.23,4-4.33,4.33-4.59,12.23-4.32,29.32-15.13,35.33-.21,2.19,2.31,2.8.71,4.32-6-4.6-14.37-2.45-23.78-3.6-5.36,6.17-12.27,10.8-15.14,19.46,4.09,2.38,7.84-1.09,12.25-.72,2.38-2.19,1.35-7.79,4.33-9.37,1.94.21,1.29,3,2.88,3.6,1.21-1.3,3.47-1.78,4.33,0-4.64,6.66-3.11,19.48-7.93,25.95-4.9-3.75-13.41-3.89-20.19-5.76,8.25-1.09,13.95-.21,20.91,1.44-.61-4.87,2.11-9.65,0-13.7C380.12,518.89,375.36,521.29,373.44,524.11Zm-7.22-71.37c4.81-2.38,14.84-10.28,10.82-19.47C373.05,439.38,368.82,445.24,366.22,452.74Zm-31.72,13.7c4.29-8.7,12.11-17.69,12.26-28.12C341.36,445.91,335.23,456.59,334.5,466.44ZM377,475.09c4.59-9.35,12.41-19.31,15.86-27.4C385,453.76,379.49,466,377,475.09Zm-56.23,7.2c3.42.3,3.53-2.72,6.48-2.88-1.66-8.47,4.3-16.75,2.17-20.91C324.87,464.73,322.49,473.17,320.81,482.29ZM315,472.2c4.86-.9,5.64-5.89,7.21-10.09-1.93-.47-2.74-2.07-4.33-2.88C317,463.57,315.75,467.62,315,472.2Zm41.81.72c4.21-2.52,6.37-7.09,9.37-10.81C359,458.82,359.11,468.84,356.85,472.92ZM334.5,494.55c.92-4.86,5.58-9.79,5.05-13.7C336.18,483.25,332.78,489.45,334.5,494.55Zm-13.69-8.65c1.21,2.15,2.26,4.47,5,5,.67-2.47,3.32-6.74,1.44-9.37C325.79,483.67,323,484.44,320.81,485.9Zm38.93,8.65c.29-1.67,4.57-3.05,2.16-5.05C361.29,490.87,358.42,493.65,359.74,494.55Zm-28.12,15.14c.42-1.78,4.29-3.83,2.16-5.77C333.16,505.51,329.94,508.19,331.62,509.69Zm-20.9,7.93h2.16c.2-1.88-.27-3.1-2.16-2.88Zm51.9,25.23c2.71-.27,5.18,3.43,7.21,1.44-3-.57-3.35-3.86-6.49-4.32C363.11,540.94,362.31,541.35,362.62,542.85ZM328.74,545c1.82,1.3,5.72-.14,7.93-.72C335.76,540.13,330.66,543.84,328.74,545Z"/>
        <path class="cls-1" d="M89.39,174.46c16.37,10.32,33,26.58,49,39.65,7.07-5.08,16.85-16,25.22-24.51,1.64-1.67,8-7.58,7.93-8.65-.07-3.07-7.12-3.37-5.76-6.49,3.75.8,5.69,5.69,10.09,3.61-1.67,2.19,1.36,4.51,3.61,5-1.63,2-4.06-1.18-5.77-1.44-11.2,11.15-21.3,23.4-32.44,34.61,6.29,6.92,13.53,12.9,20.18,19.46-8-1.88-14.08-11.87-21.62-16.58-29.62,26.61-54.72,57.75-85.07,83.63C80.68,272.69,110.14,246.16,137,217,122.26,201.67,104.26,189.64,89.39,174.46Z"/>
        <path class="cls-1" d="M462.11,348.93c3.38-2.39,8.33-3.2,14.42-2.89-6.56-4.49-12.07-10-19.47-13.7-.42,8.76,5.25,17.61,2.88,27.4-5-9.94-2.29-21.08-6.48-29.56-3.87-7.81-21.82-16.8-28.84-22.35-10.38-8.2-19.81-15.1-26.67-23.79,18.83,12.65,35,28,54.06,40.37.12-5.4-1.68-8.88-2.16-13.69-1-2.23-3.2,1.34-4.33-.72-.22-2.88,3.34-2,3.61-4.33-3.62-19.69-7.24-39.37-8.65-61.28,4.87,18.92,6.35,41.23,10.81,60.56,27.49-15.05,52-33.08,79.3-48.3-24.78,18.47-52.8,33.71-78.58,51.18,1,6.74,2.51,12.88,3.61,19.47,8.19,6.46,16.76,12.56,25.23,18.74,7.78.33,13.62-1.28,21.63-.72-2.6,3.89-10.58,2.4-16.58,2.88,4.94,7.8,19,12.76,25.23,21.63,1,.87.06.28-.72,0-9.79-7-19.61-14-29.56-20.9Z"/>
        <path class="cls-1" d="M261.69,369.83c-.63,4.19-5.9,9.95-8.65,14.42C252.58,379,258.83,374.19,261.69,369.83Z"/>
        <path class="cls-1" d="M540,391.46A333,333,0,0,1,589,429c1,.86.06.28-.72,0C572.17,416.46,554,406,540,391.46Z"/>
        <path class="cls-1" d="M15.14,408c7.12.82,18.28,3.82,23.07,9.37C29.07,415.73,22.56,411.43,15.14,408Z"/>
        <path class="cls-1" d="M208.35,470c-.49,2.89-5.87,7.1-9.38,9.37,4.6,4.77,14.14,4.61,18.75,9.37-6.53,4.05-14.57-6.36-21.63-5.76-4.54.38-5.64,4.94-10.1,7.2-1.13-3.07,4.76-5.32,6.49-7.93C156.6,464.59,115.94,451.66,80,434c38.33,12.36,77.63,30,115.35,45.41C200.08,476.67,203.88,473,208.35,470Z"/>
        <path class="cls-1" d="M168,504.64c1.07.32-.28.93,0,2.17-24.3,19.91-45.94,42.48-72.09,60.55,8.43-12.62,22.7-21.32,35.33-31.72C143.61,525.43,156,514.6,168,504.64Z"/>
        <path class="cls-1" d="M205.46,555.83c7.78.16,17.67,4.44,24.51,7.93C222.66,563.14,212.91,558.72,205.46,555.83Z"/>
        <path class="cls-1" d="M384.25,584.66c-9.4,7-28.71,10.22-41.1,16.59,1.62,1.26,4.06,1.71,5.77,2.88-11.07-2.85-23.54,2.84-36,7.93-24.52,10-51.2,21.28-76.42,28.84,31.68-14.22,65.31-26.49,98.76-38.93-21.31-9.45-46.5-15-67.76-24.52-1.78.1-1.22-.88,0-.72,17.42,5.4,35.54,11.38,54.07,17.31,6,1.91,12.28,5.76,17.3,5.77,7,0,16.18-4.8,23.07-7.21C369.47,590,376.12,586.47,384.25,584.66Z"/>
        <path class="cls-1" d="M82.9,577.45c-.29,5-5.66,4.92-7.93,7.94C75.46,583.46,78.76,578.13,82.9,577.45Z"/>
        <path class="cls-1" d="M462.83,587.55c15.06,7.05,32.91,17.55,46.14,28.84C493.22,610,477.24,597.66,462.83,587.55Z"/>
        <path class="cls-1" d="M524.1,53.35c1.88,2.77-3.47,3.43-3.6,6.49,1.21,3.35,2.41,6.72,4.33,9.37,15-1.9,27.21,4.27,41.09,5.77,1,1.42.69,4.11,1.44,5.76a113.16,113.16,0,0,0,41.09,4.33c2.9-.95,2.1-5.59,3.61-7.93,7.77-3.15,18.07-1,16.58,6.49-1.26,6.32-11.58,3.31-15.14,8.65-10.82,1.75-25-2.59-34.6-1.44-3.2.38-9.49,2.46-10.09,5.76-2,10.83,16.56,7.94,18,17.31-2.43,5.9-12.1,4.53-16.57,1.44-1.48-1.17,0-5.32-1.44-6.49-4.28.92-4.76,6.82-9.38,7.93-10.46,2.52-39.06-5.52-46.14-9.37-2.49-1.36-4.49-3.74-5.77-5-1.7-1.69.12-3.54,0-5.77C498.93,82.69,472.4,87.68,454.9,88c1.55-10.94,12.46-12.53,24.51-13,6.5,6.33,31.58,9.32,33.88-1.45,2.52-11.78-10.17-13.58-13.7-21.62C503.62,44.44,520.39,47.94,524.1,53.35Zm37.5,32.44c-5.07-7.27-20.76-4.6-30.29-5.77-4.38,5.71-4.52,15.66-5,25.23,8,4.75,23.3,9.55,33.88,5C560.66,101.69,565.89,92,561.6,85.79Z"/>
      </g>
    </g>
  </g>
</svg>
