<svg xmlns="http://www.w3.org/2000/svg" width="380.08" height="210.98" viewBox="0 0 380.08 210.98">
  <defs>
    <style>
      .cls-1 {
        fill: #263238;
      }

      .cls-1, .cls-13, .cls-2, .cls-3, .cls-4, .cls-5 {
        fill-rule: evenodd;
      }

      .cls-2 {
        fill: #f2f6f7;
      }

      .cls-3 {
        fill: #29b6f6;
      }

      .cls-4 {
        fill: #e1e4e5;
      }

      .cls-5 {
        fill: #bbc1c4;
      }

      .cls-6, .cls-8 {
        opacity: 0.07;
      }

      .cls-7, .cls-8 {
        fill: #101d23;
      }

      .cls-9 {
        fill: #fff;
      }

      .cls-10 {
        fill: #fdd835;
      }

      .cls-11 {
        fill: #0099e6;
      }

      .cls-12 {
        fill: #b2ebf2;
      }

      .cls-13 {
        fill: #ff3d00;
      }

      .cls-14 {
        fill: #dd2c00;
      }
    </style>
  </defs>
  <g id="Layer_2" data-name="Layer 2">
    <g id="Layer_1-2" data-name="Layer 1">
      <g>
        <g>
          <path class="cls-1" d="M33.12,194.1V7.24A7.24,7.24,0,0,1,40.35,0H339.73A7.24,7.24,0,0,1,347,7.24V194.1a7.24,7.24,0,0,1-7.23,7.24H40.35a7.24,7.24,0,0,1-7.23-7.24Z"/>
          <polygon class="cls-2" points="44.93 181.82 44.93 11.88 335.15 11.88 335.15 181.82 44.93 181.82 44.93 181.82"/>
          <path class="cls-3" d="M188.05,8a2.82,2.82,0,1,1,4,0,2.82,2.82,0,0,1-4,0Z"/>
          <path class="cls-4" d="M0,193.18v-.69H380.08v.69c0,9.82-8.43,17.8-18.83,17.8H18.82C8.44,211,0,203,0,193.18Z"/>
          <path class="cls-5" d="M155.22,192.49h69.64a11.09,11.09,0,0,1-11,9.31H166.16a11.08,11.08,0,0,1-10.94-9.31Z"/>
          <path class="cls-5" d="M34.62,205.26v-7H42.8v7Zm12,0v-7h8.18v7Zm12,0v-7h8.18v7Z"/>
        </g>
        <g class="cls-6">
          <rect class="cls-7" x="94.09" y="129.12" width="16.98" height="16.98" rx="3.22"/>
          <rect class="cls-7" x="94.09" y="160.01" width="16.98" height="16.98" rx="3.22"/>
          <rect class="cls-7" x="78.64" y="144.56" width="16.98" height="16.98" rx="3.22"/>
          <rect class="cls-7" x="109.54" y="144.56" width="16.98" height="16.98" rx="3.22"/>
          <rect class="cls-7" x="269.01" y="129.12" width="16.98" height="16.98" rx="3.22"/>
          <rect class="cls-7" x="269.01" y="160.01" width="16.98" height="16.98" rx="3.22"/>
          <rect class="cls-7" x="253.56" y="144.56" width="16.98" height="16.98" rx="3.22"/>
          <path class="cls-7" d="M298.21,144.56H287.68a3.22,3.22,0,0,0-3.22,3.22v10.54a3.22,3.22,0,0,0,3.22,3.22h10.53a3.22,3.22,0,0,0,3.22-3.22V147.78A3.22,3.22,0,0,0,298.21,144.56Z"/>
        </g>
        <g>
          <rect class="cls-8" x="93.83" y="20.26" width="192.42" height="101.27"/>
          <rect class="cls-9" x="95.7" y="22.5" width="188.68" height="96.78"/>
          <g>
            <g>
              <rect class="cls-10" x="95.7" y="130.73" width="13.76" height="13.76" rx="1.22"/>
              <polygon class="cls-9" points="102.58 132.67 98.83 141.98 102.58 140.31 106.33 141.98 102.58 132.67"/>
            </g>
            <g>
              <rect class="cls-10" x="95.7" y="161.62" width="13.76" height="13.76" rx="1.22" transform="translate(205.16 337) rotate(180)"/>
              <polygon class="cls-9" points="102.58 173.43 106.33 164.13 102.58 165.79 98.83 164.13 102.58 173.43"/>
            </g>
            <g>
              <g>
                <rect class="cls-10" x="80.25" y="146.17" width="13.75" height="13.76" rx="1.22" transform="translate(-65.92 240.18) rotate(-90)"/>
                <polygon class="cls-9" points="82.2 153.05 91.5 156.8 89.84 153.05 91.5 149.3 82.2 153.05"/>
              </g>
              <g>
                <rect class="cls-10" x="111.15" y="146.17" width="13.75" height="13.76" rx="1.22" transform="translate(271.08 35.03) rotate(90)"/>
                <polygon class="cls-9" points="122.96 153.05 113.66 149.3 115.32 153.05 113.66 156.8 122.96 153.05"/>
              </g>
            </g>
          </g>
          <g>
            <g>
              <rect class="cls-10" x="270.62" y="130.73" width="13.76" height="13.76" rx="1.22"/>
              <polygon class="cls-9" points="277.5 132.67 273.75 141.98 277.5 140.31 281.25 141.98 277.5 132.67"/>
            </g>
            <g>
              <rect class="cls-10" x="270.62" y="161.62" width="13.76" height="13.76" rx="1.22" transform="translate(554.99 337) rotate(180)"/>
              <polygon class="cls-9" points="277.5 173.43 281.25 164.13 277.5 165.79 273.75 164.13 277.5 173.43"/>
            </g>
            <g>
              <g>
                <rect class="cls-10" x="255.17" y="146.17" width="13.75" height="13.76" rx="1.22" transform="translate(109 415.1) rotate(-90)"/>
                <polygon class="cls-9" points="257.12 153.05 266.42 156.8 264.76 153.05 266.42 149.3 257.12 153.05"/>
              </g>
              <g>
                <rect class="cls-10" x="286.07" y="146.17" width="13.75" height="13.76" rx="1.22" transform="translate(446 -139.89) rotate(90)"/>
                <polygon class="cls-9" points="297.88 153.05 288.57 149.3 290.24 153.05 288.57 156.8 297.88 153.05"/>
              </g>
            </g>
          </g>
          <g class="cls-6">
            <path class="cls-7" d="M151.61,143.54a9.52,9.52,0,1,0,9.52,9.51A9.52,9.52,0,0,0,151.61,143.54Z"/>
            <path class="cls-7" d="M177.23,143.54a9.52,9.52,0,1,0,9.52,9.51A9.52,9.52,0,0,0,177.23,143.54Z"/>
            <path class="cls-7" d="M202.85,143.54a9.52,9.52,0,1,0,9.51,9.51A9.52,9.52,0,0,0,202.85,143.54Z"/>
            <path class="cls-7" d="M228.47,143.54a9.52,9.52,0,1,0,9.51,9.51A9.52,9.52,0,0,0,228.47,143.54Z"/>
          </g>
          <g>
            <path class="cls-11" d="M159.52,153.05a7.91,7.91,0,1,1-7.91-7.9A7.91,7.91,0,0,1,159.52,153.05Z"/>
            <path class="cls-11" d="M185.13,153.05a7.91,7.91,0,1,1-7.9-7.9A7.9,7.9,0,0,1,185.13,153.05Z"/>
            <path class="cls-11" d="M210.75,153.05a7.91,7.91,0,1,1-7.9-7.9A7.91,7.91,0,0,1,210.75,153.05Z"/>
            <path class="cls-11" d="M236.37,153.05a7.91,7.91,0,1,1-7.9-7.9A7.91,7.91,0,0,1,236.37,153.05Z"/>
          </g>
          <rect class="cls-12" x="103.7" y="30.38" width="172.67" height="81.04"/>
          <path class="cls-13" d="M122.65,68.88A9,9,0,0,0,115,82.69l7.61,13.23,7.61-13.23a9,9,0,0,0-7.61-13.81Zm0,13.24a4.23,4.23,0,1,1,4.22-4.23A4.23,4.23,0,0,1,122.65,82.12Z"/>
          <path class="cls-13" d="M255.94,40.06a8.73,8.73,0,0,0-7.4,13.42l7.4,12.85,7.39-12.85a8.73,8.73,0,0,0-7.39-13.42Zm0,12.87a4.11,4.11,0,1,1,4.1-4.11A4.11,4.11,0,0,1,255.94,52.93Z"/>
          <g>
            <rect class="cls-14" x="120.73" y="98.22" width="3.84" height="1.61"/>
            <path class="cls-14" d="M153.71,99.83h-.23V98.22h.23a6.31,6.31,0,0,0,2.57-.55l.65,1.47A7.73,7.73,0,0,1,153.71,99.83Zm-5.05,0h-3.21V98.22h3.21Zm-8,0h-3.21V98.22h3.21Zm-8,0h-3.21V98.22h3.21Zm108-4.16h-3.21V94.06h3.21Zm-8.11,0a8.79,8.79,0,0,1-3.35-1l.77-1.41a7.13,7.13,0,0,0,2.74.85Zm-71.7-.11-1.44-.73a6.25,6.25,0,0,0,.69-2.74l1.61,0A7.75,7.75,0,0,1,160.75,95.52Zm84.88-.58-.7-1.46a5.8,5.8,0,0,0,2.16-1.77l1.29,1A7.64,7.64,0,0,1,245.63,94.94Zm-20.17-4.1a8.66,8.66,0,0,1-.93-3.38l1.61-.11a7.07,7.07,0,0,0,.76,2.77ZM250.34,88l-1.53-.51,1-3.05,1.53.51Zm-88.73-.77H160V85a4.26,4.26,0,0,1,.17-1.18l1.55.47a2.45,2.45,0,0,0-.11.71Zm64.51-4.66h-1.61V79.38h1.61Zm-50.16,0h-3.21V80.93H176Zm-8,0h-3.21V80.93h3.21Zm84.94-2.14-1.53-.51,1-3,1.53.51Zm-72.38-.8L179,79.1a2.62,2.62,0,0,0,.13-.83V76.15h1.61v2.12A4.3,4.3,0,0,1,180.49,79.6Zm45.63-5h-1.61V71.34h1.61ZM180.7,71.33h-1.61v-.69a10.27,10.27,0,0,1,.36-2.7l1.55.42a8.7,8.7,0,0,0-.3,2.28Zm45.42-4.8h-1.61V63.31h1.61Zm-43-2L182,63.44l2.28-2.3,1.14,1.14Zm5.66-5.67-1.14-1.13,2.27-2.28,1.14,1.14Zm37.33-.37h-1.61V55.28h1.61Zm-31.65-5.3-1.14-1.15,2.27-2.26,1.14,1.13Zm29.94-2.56a4.57,4.57,0,0,0-1.33-2.33l1.1-1.18A6.1,6.1,0,0,1,226,50.3Zm-24-2.31-.68-1.46A14.67,14.67,0,0,1,203,45.8l.33,1.58A13.24,13.24,0,0,0,200.43,48.33Zm18.74-1.22H216V45.5h3.21Zm-8,0h-3.22V45.5h3.22Z"/>
            <rect class="cls-14" x="254.11" y="70.85" width="1.61" height="1.61" transform="translate(106.28 290.81) rotate(-71.55)"/>
          </g>
        </g>
      </g>
    </g>
  </g>
</svg>
