<svg xmlns="http://www.w3.org/2000/svg" xmlns:xlink="http://www.w3.org/1999/xlink" width="416.28" height="538.58" viewBox="0 0 416.28 538.58">
  <defs>
    <style>
      .cls-1 {
        fill: none;
      }

      .cls-2 {
        fill: #b0bec5;
      }

      .cls-14, .cls-3 {
        fill: #263238;
      }

      .cls-4, .cls-6 {
        fill: #cfd8dc;
      }

      .cls-14, .cls-16, .cls-17, .cls-4, .cls-5, .cls-9 {
        fill-rule: evenodd;
      }

      .cls-20, .cls-5 {
        fill: #0099e6;
      }

      .cls-7 {
        fill: #78909c;
      }

      .cls-8 {
        fill: #eceff1;
      }

      .cls-13, .cls-9 {
        fill: #90a4ae;
      }

      .cls-10 {
        fill: #37474f;
      }

      .cls-11, .cls-16 {
        fill: #101d23;
      }

      .cls-12 {
        fill: #00c853;
      }

      .cls-15 {
        fill: #e9edef;
      }

      .cls-17 {
        fill: #29b6f6;
      }

      .cls-18 {
        fill: #00bcd4;
      }

      .cls-19 {
        fill: #ff5722;
      }

      .cls-21 {
        opacity: 0.3;
      }

      .cls-22 {
        clip-path: url(#clip-path);
      }

      .cls-23 {
        fill: #fff;
      }

      .cls-24 {
        clip-path: url(#clip-path-2);
      }

      .cls-25 {
        fill: #03a9f4;
      }

      .cls-26 {
        fill: #eef1f3;
      }

      .cls-27 {
        fill: #fdd835;
      }

      .cls-28 {
        fill: #0085c8;
      }
    </style>
    <clipPath id="clip-path">
      <rect class="cls-1" x="46.63" y="176.06" width="41.62" height="41.61"/>
    </clipPath>
    <clipPath id="clip-path-2">
      <rect class="cls-1" x="129.85" y="176.06" width="41.61" height="41.61"/>
    </clipPath>
  </defs>
  <title>usb</title>
  <g id="Layer_2" data-name="Layer 2">
    <g id="Layer_1-2" data-name="Layer 1">
      <g>
        <rect class="cls-2" x="149.97" y="282.29" width="20.48" height="14.25"/>
        <rect class="cls-3" x="146.72" y="296.54" width="26.98" height="10.02"/>
        <path class="cls-4" d="M166.35,291.65H162v-5.26h4.32Zm-7.95,0h-4.34V286.4h4.33Z"/>
        <path class="cls-5" d="M180,374.45V310a3.43,3.43,0,0,0-3.42-3.42h-32.7a3.42,3.42,0,0,0-3.42,3.42v64.47A19.76,19.76,0,0,0,160.2,394.2h0A19.76,19.76,0,0,0,180,374.45"/>
        <path class="cls-6" d="M416.28,192.64V363.22a17.38,17.38,0,0,1-34.75,0V308.36a11.41,11.41,0,1,0-22.82,0V473.08h-5.84V308.36a17.25,17.25,0,1,1,34.49,0v54.86a11.54,11.54,0,0,0,23.08,0V192.64a6.82,6.82,0,0,0-6.81-6.81H394.3a12.66,12.66,0,0,1-12.64-12.65V61.29h5.83V173.18A6.82,6.82,0,0,0,394.3,180h9.33a12.66,12.66,0,0,1,12.65,12.65"/>
        <rect class="cls-7" x="349.96" y="473.08" width="11.67" height="17.4"/>
        <rect class="cls-2" x="346.06" y="520.53" width="19.47" height="18.05"/>
        <path class="cls-4" d="M350,535.36h3.87v-6.6H350Zm7.8,0h3.86v-6.6h-3.86Z"/>
        <rect class="cls-8" x="342.55" y="490.48" width="26.48" height="30.05"/>
        <rect class="cls-7" x="378.72" y="46.42" width="11.67" height="14.87"/>
        <path class="cls-9" d="M378.18,12.54V1.9A1.92,1.92,0,0,1,380.12,0H389a1.91,1.91,0,0,1,1.93,1.9V12.54Z"/>
        <rect class="cls-8" x="376.38" y="12.54" width="16.37" height="33.88"/>
        <path class="cls-4" d="M379.87,4.84v-2a1,1,0,0,1,.94-.95h.44V5.78h-.44a.94.94,0,0,1-.94-.94"/>
        <rect class="cls-6" x="382.36" y="1.93" width="1.65" height="3.85"/>
        <rect class="cls-6" x="385.12" y="1.93" width="1.65" height="3.85"/>
        <path class="cls-4" d="M387.88,5.78V1.93h.44a1,1,0,0,1,.94,1v2a.94.94,0,0,1-.94.94h-.44Z"/>
        <path class="cls-6" d="M287.13,373.92a31.47,31.47,0,0,1-31.43-31.43V78.2a9.34,9.34,0,0,0-9.32-9.33H169.67V62.66h76.71A15.56,15.56,0,0,1,261.92,78.2V342.49a25.22,25.22,0,1,0,50.43,0V58.5h6.22v284a31.47,31.47,0,0,1-31.44,31.43"/>
        <path class="cls-10" d="M7.5,22.25H152.81a7,7,0,0,1,7,7v73a7,7,0,0,1-7,7H7.5a7,7,0,0,1-7-7v-73a7,7,0,0,1,7-7"/>
        <path class="cls-3" d="M159.84,53.07h6.69a3.15,3.15,0,0,1,3.15,3.14v19.1a3.15,3.15,0,0,1-3.15,3.15h-6.69Z"/>
        <rect class="cls-2" x="305.22" y="2.56" width="20.48" height="14.24"/>
        <rect class="cls-8" x="301.97" y="16.8" width="26.98" height="22.11"/>
        <path class="cls-4" d="M321.59,11.52h-4.31V5.8h4.31Zm-7.95,0h-4.33V5.81h4.34Z"/>
        <rect class="cls-7" x="310.02" y="38.91" width="10.88" height="19.59"/>
        <rect class="cls-11" x="43.09" y="50.97" width="67.78" height="29.6"/>
        <rect class="cls-11" x="110.87" y="58.37" width="6.34" height="14.8"/>
        <rect class="cls-12" x="49.08" y="56.25" width="55.8" height="19.03"/>
        <rect class="cls-13" x="145.16" y="141.55" width="10.98" height="4.03"/>
        <rect class="cls-13" x="161.98" y="141.55" width="10.98" height="4.03"/>
        <path class="cls-14" d="M6.3,144.42H194.58a6.29,6.29,0,0,1,6.29,6.29V243a6.29,6.29,0,0,1-6.29,6.29H6.3A6.3,6.3,0,0,1,0,243V150.71a6.29,6.29,0,0,1,6.3-6.29"/>
        <rect class="cls-15" x="25.54" y="151.98" width="167.1" height="89.77"/>
        <path class="cls-16" d="M12.2,184.46h.42a5.86,5.86,0,0,1,5.86,5.85v13.11a5.86,5.86,0,0,1-5.86,5.85H12.2a5.85,5.85,0,0,1-5.86-5.85V190.31a5.85,5.85,0,0,1,5.86-5.85m.07,22.32h.28A3.84,3.84,0,0,0,16.38,203V190.79A3.84,3.84,0,0,0,12.55,187h-.28a3.85,3.85,0,0,0-3.84,3.84V203a3.85,3.85,0,0,0,3.84,3.83"/>
        <path class="cls-17" d="M196.65,196.91a1.81,1.81,0,1,1,0-3.62,1.81,1.81,0,0,1,0,3.62"/>
        <polygon class="cls-18" points="67.44 161.02 63.02 168.79 71.87 168.79 67.44 161.02"/>
        <polygon class="cls-18" points="67.44 232.71 71.87 224.94 63.02 224.94 67.44 232.71"/>
        <polygon class="cls-18" points="31.6 196.87 39.37 201.29 39.37 192.44 31.6 196.87"/>
        <polygon class="cls-18" points="103.29 196.87 95.52 192.44 95.52 201.29 103.29 196.87"/>
        <polygon class="cls-18" points="150.65 161.02 146.23 168.79 155.08 168.79 150.65 161.02"/>
        <polygon class="cls-18" points="150.65 232.71 155.08 224.94 146.23 224.94 150.65 232.71"/>
        <polygon class="cls-18" points="114.81 196.87 122.58 201.29 122.58 192.44 114.81 196.87"/>
        <polygon class="cls-18" points="186.5 196.87 178.73 192.44 178.73 201.29 186.5 196.87"/>
        <path class="cls-19" d="M92.73,228.19a4.53,4.53,0,1,0-4.52,4.52,4.53,4.53,0,0,0,4.52-4.52"/>
        <path class="cls-19" d="M106.83,228.19a4.52,4.52,0,1,0-4.52,4.52,4.52,4.52,0,0,0,4.52-4.52"/>
        <path class="cls-19" d="M120.94,228.19a4.53,4.53,0,1,0-4.52,4.52,4.53,4.53,0,0,0,4.52-4.52"/>
        <path class="cls-19" d="M135.05,228.19a4.53,4.53,0,1,0-4.53,4.52,4.53,4.53,0,0,0,4.53-4.52"/>
        <path class="cls-20" d="M67.44,221.29a24.43,24.43,0,1,1,24.43-24.42,24.45,24.45,0,0,1-24.43,24.42m0-45.23a20.81,20.81,0,1,0,20.81,20.81,20.82,20.82,0,0,0-20.81-20.81"/>
        <path class="cls-20" d="M150.65,221.29a24.43,24.43,0,1,1,24.43-24.42,24.45,24.45,0,0,1-24.43,24.42m0-45.23a20.81,20.81,0,1,0,20.81,20.81,20.82,20.82,0,0,0-20.81-20.81"/>
        <g class="cls-21">
          <g class="cls-22">
            <path class="cls-20" d="M67.44,176.06a20.81,20.81,0,1,0,20.81,20.81,20.82,20.82,0,0,0-20.81-20.81"/>
          </g>
        </g>
        <path class="cls-23" d="M88.25,196.87c0-.31,0-.61,0-.91H68.35V176.11c-.3,0-.6-.05-.91-.05s-.6,0-.9.05V196H46.68c0,.3,0,.6,0,.91s0,.6,0,.9H66.54v19.85c.3,0,.6,0,.9,0s.61,0,.91,0V197.77H88.2c0-.3,0-.6,0-.9"/>
        <g class="cls-21">
          <g class="cls-24">
            <path class="cls-20" d="M150.65,176.06a20.81,20.81,0,1,0,20.81,20.81,20.82,20.82,0,0,0-20.81-20.81"/>
          </g>
        </g>
        <path class="cls-23" d="M171.46,196.87c0-.31,0-.61-.05-.91H151.56V176.11c-.31,0-.6-.05-.91-.05s-.6,0-.9.05V196H129.89c0,.3,0,.6,0,.91s0,.6,0,.9h19.86v19.85c.3,0,.6,0,.9,0s.6,0,.91,0V197.77h19.85c0-.3.05-.6.05-.9"/>
        <path class="cls-25" d="M73.6,207.31a6.16,6.16,0,1,0-6.16,6.16,6.16,6.16,0,0,0,6.16-6.16"/>
        <path class="cls-25" d="M156.81,186.28a6.16,6.16,0,1,0-6.16,6.16,6.16,6.16,0,0,0,6.16-6.16"/>
        <rect class="cls-26" x="4.23" y="305.73" width="35.37" height="43.02"/>
        <path class="cls-13" d="M28.9,284.23v3.6h-14v-3.6a1.66,1.66,0,0,1,1.67-1.66H27.23a1.66,1.66,0,0,1,1.67,1.66"/>
        <path class="cls-27" d="M39.6,348.75v32a3.33,3.33,0,0,1-3.33,3.33H7.57a3.33,3.33,0,0,1-3.34-3.33v-32Z"/>
        <path class="cls-28" d="M39.6,291.17v28.88H4.23V291.17a3.33,3.33,0,0,1,3.34-3.34h28.7a3.33,3.33,0,0,1,3.33,3.34"/>
        <polygon class="cls-10" points="26.93 295.5 23.19 295.5 23.19 291.76 20.64 291.76 20.64 295.5 16.9 295.5 16.9 298.06 20.64 298.06 20.64 301.79 23.19 301.79 23.19 298.06 26.93 298.06 26.93 295.5"/>
        <rect class="cls-10" x="16.9" y="372.33" width="10.03" height="2.56"/>
        <rect class="cls-26" x="69.5" y="305.73" width="35.37" height="43.02"/>
        <path class="cls-13" d="M94.17,284.23v3.6h-14v-3.6a1.66,1.66,0,0,1,1.67-1.66H92.5a1.66,1.66,0,0,1,1.67,1.66"/>
        <path class="cls-27" d="M104.87,348.75v32a3.33,3.33,0,0,1-3.33,3.33H72.83a3.33,3.33,0,0,1-3.33-3.33v-32Z"/>
        <path class="cls-28" d="M104.87,291.17v28.88H69.5V291.17a3.33,3.33,0,0,1,3.33-3.34h28.71a3.33,3.33,0,0,1,3.33,3.34"/>
        <polygon class="cls-10" points="92.2 295.5 88.46 295.5 88.46 291.76 85.91 291.76 85.91 295.5 82.17 295.5 82.17 298.06 85.91 298.06 85.91 301.79 88.46 301.79 88.46 298.06 92.2 298.06 92.2 295.5"/>
        <rect class="cls-10" x="82.17" y="372.33" width="10.03" height="2.56"/>
      </g>
    </g>
  </g>
</svg>
